<?xml version="1.0" encoding="UTF-8" standalone="no"?>
<!DOCTYPE svg PUBLIC "-//W3C//DTD SVG 1.1//EN" "http://www.w3.org/Graphics/SVG/1.1/DTD/svg11.dtd">
<svg width="100%" height="100%" viewBox="0 0 499 665" version="1.1" xmlns="http://www.w3.org/2000/svg" xmlns:xlink="http://www.w3.org/1999/xlink" xml:space="preserve" xmlns:serif="http://www.serif.com/" style="fill-rule:evenodd;clip-rule:evenodd;stroke-linejoin:round;stroke-miterlimit:2;">
    <g transform="matrix(0.927205,-0.927205,0.927205,0.927205,-277.051,268.345)">
        <g transform="matrix(0.998122,0,0,0.998122,-79.8325,0.447934)">
            <path d="M305.567,375.946C291.109,390.107 271.316,398.842 249.5,398.842C205.264,398.842 169.349,362.928 169.349,318.692C169.349,274.455 205.264,238.541 249.5,238.541C271,238.541 290.534,247.025 304.934,260.824C311.745,266.047 320.328,269.163 329.651,269.163C339.409,269.163 348.357,265.886 355.311,260.215C369.647,246.775 388.921,238.541 410.103,238.541C454.339,238.541 490.253,274.455 490.253,318.692C490.253,362.928 454.339,398.842 410.103,398.842C388.921,398.842 369.647,390.608 355.311,377.168C348.357,371.497 339.409,368.083 329.651,368.083C320.615,368.083 312.273,371.01 305.567,375.946Z" style="fill:rgb(71,197,255);fill-opacity:0.65;"/>
        </g>
        <circle cx="169.199" cy="318.541" r="39.999"/>
        <g transform="matrix(1,0,0,1,160.301,0)">
            <circle cx="169.199" cy="318.541" r="39.999" style="fill:rgb(255,106,51);"/>
        </g>
    </g>
</svg>
