<?xml version="1.0" encoding="UTF-8"?>
<svg width="499px" height="665px" viewBox="0 0 499 665" version="1.1" xmlns="http://www.w3.org/2000/svg" xmlns:xlink="http://www.w3.org/1999/xlink">
    <title>thumbnail</title>
    <g id="thumbnail" stroke="none" stroke-width="1" fill="none" fill-rule="evenodd" stroke-linecap="round" stroke-linejoin="round">
        <path d="M103.860443,207.133361 C91.3043633,295.543992 64.5897064,381.05514 54.068743,469.661273 C53.3442966,475.762464 50.8298767,493.314447 54.068743,488.093422 C62.2096283,474.970387 67.9467515,459.821953 69.6913584,444.477754 C80.0786516,353.11924 84.1848631,261.150882 90.3027382,169.407517 C90.4556736,167.114104 91.4020273,110.024339 87.0500729,105.672385 C81.0298738,99.652186 86.4043026,135.912837 87.5590641,140.614226 C97.6438366,181.672426 107.187008,222.881904 118.524919,263.611872 C121.925878,275.829375 127.879212,287.209561 131.73007,299.292806 C133.324845,304.296901 133.074346,309.78961 134.820118,314.743048 C149.795655,357.234505 165.835299,399.345587 181.835621,441.461859 C188.649271,459.396844 195.610621,477.287962 203.257158,494.883983 C204.936977,498.74954 205.629548,504.899958 209.762489,505.726472 C212.971727,506.368262 209.713417,499.072988 208.678484,495.968151 C205.368339,486.037591 201.303704,476.348749 196.817525,466.891092 C168.961945,408.166615 129.226545,365.090975 87.9106421,315.567353 C84.2298091,311.155295 82.1812378,305.539897 78.5159327,301.11493 C71.4471063,292.581037 63.9775164,284.323781 55.8191524,276.824666 C46.31434,268.087904 37.2872394,258.133606 25.6576014,252.527897 C22.727463,251.115514 24.3039364,259.328494 25.6576014,262.286218 C32.384221,276.983711 40.1939925,291.289182 49.4592015,304.53379 C65.7736717,327.85531 85.1445605,348.897285 102.190366,371.689733 C104.4481,374.708615 104.914426,378.844414 107.24808,381.804998 C130.413125,411.193268 154.145555,440.146793 178.527015,468.534012 C185.517514,476.673017 194.025893,483.394631 201.286565,491.293562 C212.163093,503.126204 221.854972,516.02436 232.906466,527.693752 C240.879603,536.112675 249.413442,544.017989 258.287402,551.481367 C261.893746,554.514456 265.950319,557.064571 270.214058,559.071028 C272.203274,560.007125 275.400613,561.914116 276.719714,560.155358 C278.67141,557.553162 277.438129,553.569484 276.719714,550.397037 C273.993221,538.35711 270.846417,526.350663 266.452077,514.814486 C263.095805,506.003481 258.521393,497.656543 253.57281,489.630966 C239.312332,466.503425 216.008756,429.260426 195.619363,408.219203 C186.588281,398.899407 176.848726,390.215652 166.542467,382.32895 C164.452863,380.729914 161.563388,379.834065 158.952481,380.160453 C151.885389,381.043905 162.328541,424.257502 167.626472,432.204398 C169.327603,434.756094 172.154469,441.05379 174.132128,438.709891 L179.553454,438.709891 C204.721322,408.881223 203.822916,399.682063 222.923408,366.065299 C224.959119,362.482458 229.180462,352.407616 230.513069,356.306978 C242.773935,392.183689 222.19781,454.310684 199.644784,483.014731 C188.228903,497.544133 281.38501,295.958281 285.705279,287.733502 C294.641686,270.720681 310.35264,219.681482 315.291491,238.253051 C321.566272,261.848115 299.751651,284.563296 290.914878,307.323159 C280.203379,334.911538 263.344056,367.728883 248.716091,391.423144 C237.93116,408.892488 226.848472,426.296589 213.90597,442.233476 C202.144027,456.71667 191.917947,474.762693 174.873011,482.350603 C166.935768,485.884033 178.035792,465.205193 180.803653,456.969667 C188.953801,432.719621 199.1467,409.19605 207.577242,385.042053 C208.102336,383.537627 207.107444,381.784362 207.577242,380.261763 C210.630122,370.367478 214.209085,360.631555 218.073193,351.025015 C218.787863,349.248278 220.660612,348.063541 221.260161,346.244726 C226.181207,331.316046 229.642723,315.932399 234.562232,301.003212 C239.23894,286.810852 244.290326,272.723713 250.032963,258.928177 C252.213879,253.688963 256.389001,249.384096 258.27732,244.032459 C263.125825,230.291434 265.650146,215.821393 270.135027,201.957424 C273.563908,191.357831 285.385875,160.099578 281.995985,170.711705 C263.69179,228.013409 240.976533,277.076079 221.00778,334.55175 C195.873107,406.896388 233.473336,333.667493 178.97161,449.010865 C175.409945,456.548507 183.463847,432.925662 184.902252,424.713934 C185.452106,421.574868 184.357198,418.293258 184.902252,415.153355 C185.269798,413.036025 187.212358,411.406065 187.579904,409.288735 C188.124958,406.148832 187.112885,402.880611 187.579904,399.728157 C189.243872,388.496095 192.545156,377.532771 193.953514,366.265806 C195.737152,351.996581 196.71589,337.616875 197.140482,323.242876 C197.778909,301.629824 197.96201,279.982308 197.140482,258.375442 C196.536843,242.499217 193.676328,226.771305 192.869184,210.904124 C192.611474,205.837953 191.101951,191.529275 193.953514,195.72464 C221.652768,236.477185 242.794506,281.357679 269.08322,323.034076 C284.89071,348.09423 346.078087,439.276559 376.32588,475.331565 C383.798063,484.238318 423.861696,528.649673 440.535854,540.559847 C444.632166,543.485799 449.957227,547.850722 454.631171,545.981172 C457.814657,544.707797 452.93316,539.278849 451.378505,536.222851 C443.176004,520.099128 434.767915,507.182987 422.810601,493.691513 C412.970549,482.588952 402.811986,471.746066 392.146563,461.433828 C357.215579,427.659585 317.584063,397.638621 283.205205,363.259505 C185.873753,265.927321 441.816297,507.451244 249.214674,332.35886 C245.403923,328.894541 243.836394,323.371606 239.94453,319.998667 C228.268845,309.87977 214.53931,302.306966 202.863625,292.18807 C-76.2649077,50.2773926 773.943457,766.64782 168.866589,256.694144 C146.530226,237.869246 122.185847,217.282095 100.678353,199.3697 C94.5728584,194.284772 88.0727267,189.656458 81.3594536,185.406103 C77.2626417,182.8123 73.1973513,178.900772 68.3484672,178.900772 C66.1800237,178.900772 67.662741,183.348938 68.3484672,185.406103 C70.4090316,191.587755 73.1105665,197.600757 76.4474444,203.197541 C89.1343928,224.476747 106.159306,246.935613 121.795472,265.841676 C140.069772,287.93757 160.284531,308.379582 178.558888,330.47543 C180.961433,333.380389 181.437032,337.514905 183.616602,340.590695 C190.961675,350.955996 198.661011,361.105288 207.034101,370.659392 C225.696813,391.954456 244.57666,413.110668 264.662964,433.068545 C274.619013,442.960937 285.735276,451.661477 296.992851,460.042965 C301.273034,463.229647 306.009346,465.99456 311.087842,467.632789 C317.364623,469.657561 324.014925,471.160039 330.604484,470.885454 C333.208389,470.77695 335.348771,468.46961 337.109815,466.548458 C359.098561,442.560572 339.397379,404.604339 326.333186,382.174627 C322.092985,374.894691 305.392103,348.894974 294.890213,346.394496 C291.270405,345.532627 290.345556,352.536402 289.468887,356.152654 C286.084345,370.113859 280.266877,400.392379 290.553217,413.617925 C291.218857,414.473764 293.23945,414.54242 293.805883,413.617925 C300.924354,401.999608 307.143321,389.814266 312.747186,377.394338 C342.950102,310.455175 306.095533,376.519338 343.861347,305.096607 C345.923524,301.196617 348.398581,297.43927 351.451008,294.254119 C356.767472,288.706485 361.368176,277.11912 368.79899,279.074635 C375.522087,280.843904 371.757531,292.729665 372.051655,299.675444 C373.393049,331.35263 365.284617,364.005893 357.135773,394.260973 C349.302517,423.344336 345.745475,454.415586 331.311218,480.851437 C325.349056,491.770932 329.345047,455.95356 330.226887,443.543682 C330.948273,433.391834 334.682628,423.65933 336.091507,413.579873 C342.267339,369.396508 344.733274,300.239597 368.944369,259.609379 C373.461001,252.029725 376.898168,232.86098 384.124016,237.924402 C392.553316,243.831128 383.471769,258.546144 381.955356,268.726664 C374.278904,320.26292 352.298482,373.765848 323.423642,417.018084 C317.88792,425.310161 311.030483,433.042681 302.822995,438.703061 C299.847822,440.754921 294.895107,440.840311 291.980669,438.703061 C285.692309,434.091605 283.407671,407.021272 283.306678,404.647971 C281.013342,350.754917 286.90093,299.061043 308.718512,249.286289 C313.653513,238.027552 324.582196,218.984703 336.843123,211.978534 C339.127675,210.67309 343.114751,207.532912 344.433109,209.810037 C348.304275,216.496487 348.39061,224.862445 348.770104,232.579344 C349.841232,254.360396 350.231847,276.243136 348.770104,298.001465 C346.854242,326.519449 342.681802,354.852374 338.654676,383.149516 C333.913875,416.461394 325.882973,457.815748 319.76541,487.480194 C318.293427,494.617935 316.139467,501.610366 313.834768,508.524297 C312.348965,512.981602 310.695172,517.428109 308.413443,521.535284 C307.042634,524.002776 303.934656,530.701578 302.992442,528.040777 C49.6641147,-187.355851 377.943255,697.390694 235.758768,328.50874 C231.836795,318.333613 217.727415,290.23627 226.066469,297.263021 C266.705133,331.506445 369.455179,445.565222 421.047507,495.431189 C428.434428,502.570932 436.417366,509.153716 444.901145,514.947506 C451.309313,519.323809 458.355156,522.766543 465.501792,525.790158 C467.855382,526.78592 472.419027,529.339842 473.091453,526.874325 C476.886417,512.959709 467.811869,484.467418 463.908471,472.859462 C448.678914,427.569693 431.955527,382.791569 416.714415,337.505688 C415.130409,332.799136 413.970739,327.907041 413.461749,322.96724 C413.236421,320.780404 413.297965,314.651986 414.54608,316.461747 C455.836513,376.33272 420.872786,340.136078 441.652057,360.915869" id="Path-10" stroke="#1E293B" stroke-width="10"></path>
    </g>
</svg>