<?xml version="1.0" encoding="UTF-8"?>
<svg width="384px" height="472px" viewBox="0 0 384 472" version="1.1" xmlns="http://www.w3.org/2000/svg" xmlns:xlink="http://www.w3.org/1999/xlink">
    <title>thumbnail</title>
    <g id="thumbnail" stroke="none" stroke-width="1" fill="none" fill-rule="evenodd">
        <g id="Group-2" transform="translate(20, 64)">
            <ellipse id="Oval" fill="#F97316" cx="172.260829" cy="172.693277" rx="104.849813" ry="105.11303"></ellipse>
            <path d="M157.404978,135.50236 L157.432826,135.530208 L172.260352,150.395174 L187.088832,135.530208 C193.215411,129.388249 203.161027,129.37578 209.302987,135.50236 L209.330836,135.530208 C215.477301,141.692104 215.477301,151.666154 209.330836,157.828049 L194.502352,172.693174 L209.330836,187.558504 C215.4773,193.720399 215.477299,203.694449 209.330833,209.856342 C203.20425,215.998302 193.258631,216.010767 187.116671,209.884184 L187.088826,209.856339 L172.260352,194.991174 L157.432826,209.856345 C151.306247,215.998305 141.360631,216.010773 135.218671,209.884193 L135.190822,209.856345 C129.044357,203.69445 129.044357,193.720399 135.190822,187.558504 L150.018352,172.693174 L135.190822,157.828049 C129.044357,151.666154 129.044357,141.692104 135.190822,135.530208 C141.317402,129.388249 151.263018,129.37578 157.404978,135.50236 Z" id="Combined-Shape" fill="#FFFFFF"></path>
            <g id="Group-3" transform="translate(172.2533, 172.6857)" stroke="#FBBF24" stroke-linecap="round" stroke-linejoin="round" stroke-width="12">
                <path d="M0,135.145325 C37.2258981,135.145325 70.9276237,120.018669 95.3228747,95.5621755 C119.718126,71.1056821 134.806902,37.3193509 134.806902,0" id="Oval" opacity="0.64"></path>
                <path d="M60.6228893,161.687655 C83.8059431,152.947545 104.611801,139.340028 121.801451,122.107224 C139.119739,104.74546 152.767493,83.7039485 161.477677,60.2529058" id="Oval" opacity="0.32"></path>
                <path d="M120.157394,172.314307 C130.213735,165.253519 139.623536,157.330496 148.280027,148.652273 C156.880815,140.029894 164.737958,130.662003 171.746736,120.653583" id="Oval" opacity="0.16"></path>
            </g>
            <g id="Group-3" transform="translate(85.8734, 86.1572) scale(-1, -1) translate(-85.8734, -86.1572)" stroke="#FBBF24" stroke-linecap="round" stroke-linejoin="round" stroke-width="12">
                <path d="M0,135.145325 C37.2258981,135.145325 70.9276237,120.018669 95.3228747,95.5621755 C119.718126,71.1056821 134.806902,37.3193509 134.806902,0" id="Oval" opacity="0.64"></path>
                <path d="M60.6228893,161.687655 C83.8059431,152.947545 104.611801,139.340028 121.801451,122.107224 C139.119739,104.74546 152.767493,83.7039485 161.477677,60.2529058" id="Oval" opacity="0.32"></path>
                <path d="M120.157394,172.314307 C130.213735,165.253519 139.623536,157.330496 148.280027,148.652273 C156.880815,140.029894 164.737958,130.662003 171.746736,120.653583" id="Oval" opacity="0.16"></path>
            </g>
        </g>
    </g>
</svg>