<?xml version="1.0" encoding="UTF-8"?>
<svg width="499px" height="665px" viewBox="0 0 499 665" version="1.1" xmlns="http://www.w3.org/2000/svg" xmlns:xlink="http://www.w3.org/1999/xlink">
    <title>thumbnail</title>
    <g id="thumbnail" stroke="none" stroke-width="1" fill="none" fill-rule="evenodd">
        <g id="left-man" transform="translate(128.000000, 138.000000)">
            <g id="body">
                <rect id="Rectangle" fill="#262626" x="17" y="232" width="87" height="157" rx="43.5"></rect>
                <path d="M60,85 C93.137085,85 120,111.862915 120,145 L120,214.287291 C120,263.171206 84.6586957,304.890217 36.4398987,312.926684 L0,319 L0,319 L0,299 L0,145 C-4.05812251e-15,111.862915 26.862915,85 60,85 Z" id="torso" fill="#454545"></path>
                <circle id="head" fill="#EEDCBA" cx="114" cy="60" r="60"></circle>
                <polyline id="Path" stroke="#98876F" stroke-width="5" transform="translate(136.049316, 90.705078) rotate(-8.000000) translate(-136.049316, -90.705078) " points="145.193359 96.4101562 141.178674 89.671875 135.457031 89.671875 133.827042 85 126.905273 85.2568359"></polyline>
            </g>
            <g id="eyes" transform="translate(152.406114, 65.000000) rotate(15.000000) translate(-152.406114, -65.000000) translate(142.906114, 58.000000)" stroke="#98876F" stroke-linecap="round" stroke-width="5">
                <line x1="17.5938858" y1="12.5" x2="4.59388582" y2="0.5" id="Line"></line>
                <line x1="17.1877716" y1="13.0964557" x2="1.70530257e-13" y2="8.90354429" id="Line-Copy"></line>
            </g>
            <g id="arm" transform="translate(147.690288, 133.162696) scale(-1, 1) rotate(57.000000) translate(-147.690288, -133.162696) translate(71.190288, 70.162696)">
                <rect fill="#EEDCBA" transform="translate(56.977546, 73.246892) rotate(-58.000000) translate(-56.977546, -73.246892) " x="32.9775459" y="21.746892" width="48" height="103" rx="24"></rect>
                <rect id="shoulder" fill="#454545" transform="translate(100.117930, 63.000000) rotate(30.000000) translate(-100.117930, -63.000000) " x="71.1179296" y="8" width="58" height="110" rx="29"></rect>
            </g>
        </g>
    </g>
</svg>