<?xml version="1.0" encoding="UTF-8" standalone="no"?>
<!DOCTYPE svg PUBLIC "-//W3C//DTD SVG 1.1//EN" "http://www.w3.org/Graphics/SVG/1.1/DTD/svg11.dtd">
<svg width="100%" height="100%" viewBox="0 0 499 665" version="1.1" xmlns="http://www.w3.org/2000/svg" xmlns:xlink="http://www.w3.org/1999/xlink" xml:space="preserve" xmlns:serif="http://www.serif.com/" style="fill-rule:evenodd;clip-rule:evenodd;stroke-linejoin:round;stroke-miterlimit:2;">
    <g id="symbol-iterator">
        <g>
            <path d="M27.685,373.501C27.685,373.501 292.163,210.96 333.596,185.497C337.09,183.35 341.261,182.589 345.288,183.366C371.55,188.431 471.482,207.705 471.482,207.705L482.469,215.677L176.165,521.981L164.414,533.732L27.685,418.756C15.197,406.268 15.197,385.99 27.685,373.501Z" style="fill:rgb(113,113,123);"/>
            <path d="M164.447,488.444C164.758,488.133 165.074,487.829 165.395,487.533L449.916,214.289C459.282,204.923 474.491,204.923 483.857,214.289C493.223,223.655 493.223,238.864 483.857,248.23L210.613,532.751C210.317,533.072 210.013,533.388 209.702,533.699C197.213,546.188 176.935,546.188 164.447,533.699C151.958,521.211 151.958,500.933 164.447,488.444Z" style="fill:rgb(63,63,70);"/>
        </g>
        <ellipse cx="150.124" cy="395.806" rx="42.269" ry="16.903" style="fill:rgb(63,63,70);"/>
        <ellipse cx="382.407" cy="218.285" rx="37.792" ry="15.113" style="fill:rgb(63,63,70);"/>
        <ellipse cx="259.446" cy="311.431" rx="42.269" ry="16.903" style="fill:rgb(63,63,70);fill-opacity:0.48;"/>
        <path d="M377.741,142.538C402.408,145.436 420.081,167.815 417.184,192.481C414.286,217.148 391.907,234.821 367.24,231.923C342.574,229.026 324.9,206.647 327.798,181.98C330.696,157.314 353.075,139.64 377.741,142.538Z" style="fill:rgb(212,212,216);"/>
        <path d="M266.155,162.388C297.673,166.091 320.256,194.686 316.553,226.204C312.85,257.722 284.255,280.305 252.737,276.602C221.219,272.9 198.636,244.305 202.339,212.786C206.041,181.268 234.636,158.685 266.155,162.388Z" style="fill:rgb(240,177,0);"/>
        <path d="M149.118,283.432C183.377,287.457 207.924,318.538 203.899,352.797C199.874,387.056 168.793,411.603 134.533,407.578C100.274,403.553 75.728,372.472 79.753,338.213C83.777,303.954 114.859,279.407 149.118,283.432Z" style="fill:rgb(212,212,216);"/>
    </g>
</svg>
