<?xml version="1.0" encoding="UTF-8"?>
<svg width="320px" height="320px" viewBox="0 0 320 320" version="1.1" xmlns="http://www.w3.org/2000/svg" xmlns:xlink="http://www.w3.org/1999/xlink">
    <title>favicon</title>
    <g id="favicon" stroke="none" stroke-width="1" fill="none" fill-rule="evenodd">
        <g id="logo-copy-2" fill-rule="nonzero">
            <g id="Group">
                <rect id="Rectangle" fill="#111827" x="0" y="0" width="320" height="320" rx="42"></rect>
                <g id="Group-2" transform="translate(90.900000, 64.000000)">
                    <path d="M18.131731,108.919075 L90.5537233,109.480851 L90.5537233,192 C42.4682511,192 12.2836767,192 0,192 C11.9365248,164.285283 17.9804351,136.591642 18.131731,108.919075 Z" id="Path" fill="transparent"></path>
                    <path d="M18.1212766,54.8571428 L18.1212766,0 L72.7903093,0 C102.983182,0 127.459341,24.5603795 127.459341,54.8571428 C127.459341,77.9713853 113.212777,97.7467153 93.050134,105.823983 C93.9009747,141.271159 111.506291,172.552825 138.223404,192 L98.2426893,192 C70.3827287,192 60.2800335,189.0992 50.0948483,183.652103 C39.9096632,178.205007 31.9162703,170.211613 26.4691735,160.026428 C21.0220769,149.841243 18.1212766,139.738548 18.1212766,111.878587 L18.1212766,54.8571428 Z" id="Combined-Shape" fill="#FFFFFF"></path>
                    <path d="M18.1,109 C30.1,92.7330124 36.1,74.5663457 36.1,54.5 C36.1,24.4004806 28.0411257,0 18.1,0 C8.15887426,0 0.1,24.4004806 0.1,54.5 C0.1,74.5663457 6.1,92.7330124 18.1,109 Z" id="Oval-4" fill="transparent"></path>
                </g>
            </g>
        </g>
    </g>
</svg>