<?xml version="1.0" encoding="UTF-8" standalone="no"?>
<!DOCTYPE svg PUBLIC "-//W3C//DTD SVG 1.1//EN" "http://www.w3.org/Graphics/SVG/1.1/DTD/svg11.dtd">
<svg width="100%" height="100%" viewBox="0 0 499 665" version="1.1" xmlns="http://www.w3.org/2000/svg" xmlns:xlink="http://www.w3.org/1999/xlink" xml:space="preserve" xmlns:serif="http://www.serif.com/" style="fill-rule:evenodd;clip-rule:evenodd;stroke-linejoin:round;stroke-miterlimit:2;">
    <g id="container-format">
        <path d="M226.406,332.5L226.406,496.454L62.452,496.454L62.452,332.5L226.406,332.5ZM121.131,364.5L94.452,364.5L94.452,464.454L121.131,464.454L121.131,364.5ZM157.769,364.5L131.09,364.5L131.09,464.454L157.769,464.454L157.769,364.5ZM194.406,364.5L167.727,364.5L167.727,464.454L194.406,464.454L194.406,364.5Z" style="fill:rgb(0,151,196);"/>
        <path d="M380.472,286.312L436.548,440.378L282.482,496.454L226.406,342.388L380.472,286.312ZM292.491,352.388L267.421,361.513L301.607,455.439L326.677,446.314L292.491,352.388ZM326.919,339.858L301.849,348.982L336.035,442.908L361.105,433.784L326.919,339.858ZM361.347,327.327L336.277,336.452L370.463,430.378L395.533,421.253L361.347,327.327Z" style="fill:rgb(115,219,154);"/>
        <path d="M226.406,168.546L226.406,332.5L62.452,332.5L62.452,168.546L226.406,168.546ZM121.131,200.546L94.452,200.546L94.452,300.5L121.131,300.5L121.131,200.546ZM157.769,200.546L131.09,200.546L131.09,300.5L157.769,300.5L157.769,200.546ZM194.406,200.546L167.727,200.546L167.727,300.5L194.406,300.5L194.406,200.546Z" style="fill:rgb(254,87,47);"/>
    </g>
</svg>
