<?xml version="1.0" encoding="UTF-8"?>
<svg width="256px" height="256px" viewBox="0 0 256 256" version="1.1" xmlns="http://www.w3.org/2000/svg" xmlns:xlink="http://www.w3.org/1999/xlink">
    <title>cheatsheet</title>
    <g id="Page-1" stroke="none" stroke-width="1" fill="none" fill-rule="evenodd">
        <g id="cheatsheet">
            <rect id="Rectangle-2" fill="#FEF08A" fill-rule="nonzero" x="0" y="0" width="256" height="256"></rect>
            <path d="M175.384615,142.307692 L175.384615,125.615385 C175.384615,113.762504 165.775957,104.153846 153.923077,104.153846 L144.384615,104.153846 C140.433655,104.153846 137.230769,100.95096 137.230769,97 L137.230769,87.4615385 C137.230769,75.6086581 127.622111,66 115.769231,66 L103.846154,66 M103.846154,147.076923 L151.538462,147.076923 M103.846154,166.153846 L127.692308,166.153846 M118.153846,66 L87.1538462,66 C83.2049231,66 80,69.2049231 80,73.1538462 L80,182.846154 C80,186.795077 83.2049231,190 87.1538462,190 L168.230769,190 C172.179692,190 175.384615,186.795077 175.384615,182.846154 L175.384615,123.230769 C175.384615,91.6230882 149.761527,66 118.153846,66 Z" id="Shape" stroke="#854D0E" stroke-width="10" stroke-linecap="round" stroke-linejoin="round"></path>
        </g>
    </g>
</svg>