<?xml version="1.0" encoding="UTF-8"?>
<svg width="264px" height="325px" viewBox="0 0 264 325" version="1.1" xmlns="http://www.w3.org/2000/svg" xmlns:xlink="http://www.w3.org/1999/xlink">
    <title>thumbnail</title>
    <defs>
        <linearGradient x1="50%" y1="0.456184441%" x2="50%" y2="100%" id="linearGradient-1">
            <stop stop-color="#1F2937" offset="0%"></stop>
            <stop stop-color="#374151" offset="100%"></stop>
        </linearGradient>
        <linearGradient x1="50%" y1="0.456184441%" x2="50%" y2="100%" id="linearGradient-2">
            <stop stop-color="#111827" offset="0%"></stop>
            <stop stop-color="#1F2937" offset="100%"></stop>
        </linearGradient>
        <linearGradient x1="50%" y1="0.456184441%" x2="50%" y2="50%" id="linearGradient-3">
            <stop stop-color="#1F2937" offset="0%"></stop>
            <stop stop-color="#374151" offset="100%"></stop>
        </linearGradient>
        <linearGradient x1="50%" y1="0.456184441%" x2="50%" y2="100%" id="linearGradient-4">
            <stop stop-color="#111827" offset="0%"></stop>
            <stop stop-color="#374151" offset="100%"></stop>
        </linearGradient>
        <linearGradient x1="50%" y1="0%" x2="50%" y2="100%" id="linearGradient-5">
            <stop stop-color="#9CA3AF" offset="0.0655594406%"></stop>
            <stop stop-color="#FFFFFF" offset="100%"></stop>
        </linearGradient>
    </defs>
    <g id="thumbnail" stroke="none" stroke-width="1" fill="none" fill-rule="evenodd">
        <g id="Group" transform="translate(20, 79)">
            <path d="M16,0 L89,0 C97.836556,-1.623249e-15 105,7.163444 105,16 L105,81.5 L105,81.5 L0,81.5 L0,16 C-1.082166e-15,7.163444 7.163444,1.623249e-15 16,0 Z" id="Rectangle" fill="url(#linearGradient-1)"></path>
            <path d="M0,85 L105,85 L105,150.5 C105,159.336556 97.836556,166.5 89,166.5 L16,166.5 C7.163444,166.5 1.082166e-15,159.336556 0,150.5 L0,85 L0,85 Z" id="Rectangle-Copy-25" fill="url(#linearGradient-2)"></path>
            <path d="M59.5673828,93.5371094 C55.2379557,97.5084635 52.4954427,100.145182 51.3398438,101.447266 C50.1842448,102.749349 49.2483724,104.01888 48.5322266,105.255859 L75.7783203,105.255859 L75.7783203,118 L27.6826172,118 C28.2034505,113.182292 29.7659505,108.616862 32.3701172,104.303711 C34.9742839,99.9905599 40.117513,94.2695312 47.7998047,87.140625 C48.5995504,86.3955988 49.3592919,85.6815962 50.0790292,84.9986172 L68.0720929,84.9988709 C66.3428311,87.0763947 63.5079277,89.9224742 59.5673828,93.5371094 Z" id="Combined-Shape" fill="#FFFFFF" fill-rule="nonzero"></path>
            <path d="M53.0732422,46.125 C60.1370443,46.125 65.6871745,48.0292969 69.7236328,51.8378906 C73.7600911,55.6464844 75.7783203,60.3828125 75.7783203,66.046875 C75.7783203,69.2695312 75.2005208,72.3375651 74.0449219,75.2509766 C72.8893229,78.164388 71.0582682,81.2161458 68.5517578,84.40625 C68.4023194,84.5967108 68.2420669,84.7946886 68.0710003,85.0001836 L50.0770455,85.0004996 C54.9246096,80.4005959 57.957847,77.207721 59.1767578,75.421875 C61.0647786,72.5898438 62.0087891,69.7903646 62.0087891,67.0234375 C62.0087891,63.9635417 61.186849,61.6116536 59.5429688,59.9677734 C57.8990885,58.3238932 55.6285807,57.5019531 52.7314453,57.5019531 C49.866862,57.5019531 47.5882161,58.3645833 45.8955078,60.0898438 C44.2027995,61.8151042 43.226237,64.6796875 42.9658203,68.6835938 L29.2939453,67.3164062 C30.1077474,59.7643229 32.6630859,54.344401 36.9599609,51.0566406 C41.2568359,47.7688802 46.6279297,46.125 53.0732422,46.125 Z" id="Combined-Shape" fill="#FFFFFF" fill-rule="nonzero"></path>
        </g>
        <g id="Group-Copy" transform="translate(127, 79)">
            <path d="M101,0 C109.836556,-1.623249e-15 117,7.163444 117,16 L117.000429,17.4232572 C114.704978,16.505064 112.199628,16 109.576313,16 L19.4236867,16 C18.1380202,16 16.8553491,16.1239697 15.5934795,16.3701882 C14.3423411,16.6143127 13.1413802,16.9701527 11.9989296,17.4253347 L12,16 C12,7.163444 19.163444,1.623249e-15 28,0 L101,0 Z" id="Combined-Shape" fill="url(#linearGradient-3)"></path>
            <path d="M12,85 L117,85 L117,150.5 C117,159.336556 109.836556,166.5 101,166.5 L28,166.5 C19.163444,166.5 12,159.336556 12,150.5 L12,85 L12,85 Z" id="Rectangle-Copy-25" fill="url(#linearGradient-2)"></path>
            <path d="M19.4236867,20 L109.576313,20 C118.412869,20 125.576313,27.163444 125.576313,36 C125.576313,37.0285332 125.477138,38.0546701 125.280163,39.0641658 L117,81.5 L117,81.5 L12,81.5 L3.71983722,39.0641658 C2.0275452,30.3911692 7.68652436,21.9884425 16.3595209,20.2961505 C17.3690166,20.0991758 18.3951535,20 19.4236867,20 Z" id="Rectangle" fill="url(#linearGradient-4)"></path>
            <path d="M84.4655106,84.9995777 C84.5869646,85.1410982 84.706534,85.2851192 84.8242188,85.4316406 C87.281901,88.4915365 88.5107422,92.1861979 88.5107422,96.515625 C88.5107422,102.798177 86.2158203,108.152995 81.6259766,112.580078 C77.0361328,117.007161 71.3232422,119.220703 64.4873047,119.220703 C58.0094401,119.220703 52.6383464,117.357096 48.3740234,113.629883 C44.1097005,109.902669 41.6357422,105.027995 40.9521484,99.0058594 L54.2333984,97.3945312 C54.6565755,100.779948 55.7958984,103.367839 57.6513672,105.158203 C59.5068359,106.948568 61.7529297,107.84375 64.3896484,107.84375 C67.2216797,107.84375 69.6061198,106.769531 71.5429688,104.621094 C73.4798177,102.472656 74.4482422,99.5755208 74.4482422,95.9296875 C74.4482422,92.4791667 73.5205078,89.7447917 71.6650391,87.7265625 C70.3932443,86.3432067 68.9302813,85.4339481 67.2761501,84.9987865 Z M61.724228,84.9994458 C60.7478302,85.1691893 59.6994547,85.4109105 58.5791016,85.7246094 L58.6761484,84.9999987 Z" id="Combined-Shape" fill="#FFFFFF"></path>
            <path d="M64.3129722,50.5 C76.3684186,50.5 85.3776625,52.3309708 90.735385,55.9929124 C94.5769443,58.9890464 95.2290974,62.3735682 93.1243665,66.1464777 C90.2587766,71.5006801 84.1963729,75.7729453 75.6193681,78.9632732 C78.2121475,79.4369889 80.2771816,80.2824242 81.7811778,81.499579 L59.0155391,81.5 L59.5346864,74.71875 C63.8161813,74.8019759 67.1253433,74.1153619 69.5751613,72.6589079 C72.1635253,71.2024538 73.7419171,69.2674506 74.2125431,66.8538982 C74.6211315,64.8009916 73.921017,63.1642146 72.0396803,61.9435674 C70.0680458,60.7229202 67.240906,60.1125966 63.6269016,60.1125966 C60.0624041,60.1125966 57.0992194,60.8061462 54.8276815,62.1932453 C52.6747587,63.5803444 51.6881217,65.605509 51.8059574,68.2687393 L34.2401943,66.4377685 C33.4484356,62.7480849 33.8458401,59.8004994 35.4968243,57.5950118 C37.342373,55.3895243 40.7670492,53.6556504 45.7879448,52.3933902 C51.0340363,51.1311301 57.2660688,50.5 64.3129722,50.5 Z" id="Path" fill="url(#linearGradient-5)" fill-rule="nonzero"></path>
        </g>
    </g>
</svg>