<?xml version="1.0" encoding="UTF-8"?>
<svg width="499px" height="665px" viewBox="0 0 499 665" version="1.1" xmlns="http://www.w3.org/2000/svg" xmlns:xlink="http://www.w3.org/1999/xlink">
    <title>thumbnail</title>
    <defs>
        <linearGradient x1="26.8242921%" y1="48.2236445%" x2="67.5758137%" y2="55.339338%" id="linearGradient-1">
            <stop stop-color="#FF6533" offset="0%"></stop>
            <stop stop-color="#FF5633" offset="15.7%"></stop>
            <stop stop-color="#FF4333" offset="43.4%"></stop>
            <stop stop-color="#FF3733" offset="71.4%"></stop>
            <stop stop-color="#FF3333" offset="100%"></stop>
        </linearGradient>
        <linearGradient x1="20.4503837%" y1="38.1333935%" x2="93.4858428%" y2="80.4322382%" id="linearGradient-2">
            <stop stop-color="#BF3338" offset="0%"></stop>
            <stop stop-color="#FF3333" offset="100%"></stop>
        </linearGradient>
        <linearGradient x1="32.2926113%" y1="39.496861%" x2="45.5563705%" y2="48.9139013%" id="linearGradient-3">
            <stop stop-color="#FF6533" offset="0%"></stop>
            <stop stop-color="#FF5633" offset="15.7%"></stop>
            <stop stop-color="#FF4333" offset="43.4%"></stop>
            <stop stop-color="#FF3733" offset="71.4%"></stop>
            <stop stop-color="#FF3333" offset="100%"></stop>
        </linearGradient>
        <linearGradient x1="51.5641026%" y1="78.3444231%" x2="48.5176441%" y2="41.6628279%" id="linearGradient-4">
            <stop stop-color="#FF6533" offset="0%"></stop>
            <stop stop-color="#FF5633" offset="15.7%"></stop>
            <stop stop-color="#FF4333" offset="43.4%"></stop>
            <stop stop-color="#FF3733" offset="71.4%"></stop>
            <stop stop-color="#FF3333" offset="100%"></stop>
        </linearGradient>
        <linearGradient x1="40.2012262%" y1="47.2148639%" x2="53.9750044%" y2="54.5349876%" id="linearGradient-5">
            <stop stop-color="#FBB040" offset="0%"></stop>
            <stop stop-color="#FB8840" offset="100%"></stop>
        </linearGradient>
        <linearGradient x1="55.2222794%" y1="5.88782542%" x2="40.9262994%" y2="128.016462%" id="linearGradient-6">
            <stop stop-color="#FFFFFF" offset="0%"></stop>
            <stop stop-color="#FFFFFF" stop-opacity="0" offset="100%"></stop>
        </linearGradient>
    </defs>
    <g id="thumbnail" stroke="none" stroke-width="1" fill="none" fill-rule="evenodd">
        <g id="rollup-js-seeklogo.com" transform="translate(100.000000, 136.000000)" fill-rule="nonzero">
            <path d="M300,129.061785 C300,105.995423 293.95881,84.3707094 283.318078,65.6292906 C255.102975,36.590389 193.729977,29.8627002 178.489703,65.4919909 C162.837529,102.01373 204.782609,142.654462 223.112128,139.427918 C246.453089,135.308925 218.993135,81.7620137 218.993135,81.7620137 C254.691075,149.038902 246.453089,128.443936 181.922197,190.228833 C117.391304,252.01373 51.4874142,382.379863 41.8764302,387.871854 C41.4645309,388.146454 41.0526315,388.352402 40.5720824,388.558352 L293.68421,388.558352 C298.146454,388.558352 301.029749,383.821511 299.038902,379.839817 L232.860411,248.855835 C231.418765,246.04119 232.448512,242.540046 235.194509,240.961098 C273.913043,218.718536 300,176.979405 300,129.061785 Z" id="Path" fill="url(#linearGradient-1)"></path>
            <path d="M300,129.061785 C300,105.995423 293.95881,84.3707094 283.318078,65.6292906 C255.102975,36.590389 193.729977,29.8627002 178.489703,65.4919909 C162.837529,102.01373 204.782609,142.654462 223.112128,139.427918 C246.453089,135.308925 218.993135,81.7620137 218.993135,81.7620137 C254.691075,149.038902 246.453089,128.443936 181.922197,190.228833 C117.391304,252.01373 51.4874142,382.379863 41.8764302,387.871854 C41.4645309,388.146454 41.0526315,388.352402 40.5720824,388.558352 L293.68421,388.558352 C298.146454,388.558352 301.029749,383.821511 299.038902,379.839817 L232.860411,248.855835 C231.418765,246.04119 232.448512,242.540046 235.194509,240.961098 C273.913043,218.718536 300,176.979405 300,129.061785 Z" id="Path" fill="url(#linearGradient-2)"></path>
            <path d="M41.8764302,387.871854 C51.4874142,382.379863 117.391304,251.94508 181.922197,190.160183 C246.453089,128.375286 254.691075,148.970251 218.993135,81.6933639 C218.993135,81.6933639 82.3798627,273.226545 32.951945,367.963386" id="Path" fill="url(#linearGradient-3)"></path>
            <path d="M61.0983982,216.247139 C153.363845,46.6132723 165.446224,29.5194509 213.501144,29.5194509 C238.764302,29.5194509 264.233409,40.9153318 280.709382,61.167048 C258.26087,24.9885584 218.512586,0.755148742 172.997712,0.0686498856 L16.2700229,0.0686498856 C12.9748283,0.0686498856 10.2974828,2.74599543 10.2974828,6.04118993 L10.2974828,321.967963 C19.6338673,297.871854 35.4919909,263.409611 61.0983982,216.247139 Z" id="Path" fill="url(#linearGradient-4)"></path>
            <path d="M181.922197,190.160183 C117.391304,251.94508 51.4874142,382.379863 41.8764302,387.871854 C32.2654463,393.363845 16.1327231,394.050343 7.55148742,384.439359 C-1.57894737,374.210527 -15.7894737,357.665904 61.0983982,216.247139 C153.363845,46.6132723 165.446224,29.5194509 213.501144,29.5194509 C238.764302,29.5194509 264.233409,40.9153318 280.709382,61.167048 C281.601831,62.6086957 282.494279,64.1189931 283.386728,65.6292906 C255.171625,36.590389 193.798627,29.8627002 178.558352,65.4919909 C162.906178,102.01373 204.851258,142.654463 223.180778,139.427918 C246.521739,135.308925 219.061785,81.7620137 219.061785,81.7620137 C254.691075,148.970251 246.453089,128.375286 181.922197,190.160183 Z" id="Path" fill="url(#linearGradient-5)"></path>
            <path d="M68.6498856,223.798627 C160.915331,54.1647598 172.997712,37.0709382 221.052632,37.0709382 C241.853546,37.0709382 262.791762,44.8283753 278.718536,58.832952 C262.242562,40.0228833 237.803203,29.5194509 213.501144,29.5194509 C165.446224,29.5194509 153.363845,46.6132723 61.0983982,216.247139 C-15.7894737,357.665904 -1.57894737,374.210527 7.55148742,384.439359 C8.85583525,385.881007 10.3661327,387.116705 11.9450801,388.146454 C3.91304347,376.475973 0.343249427,349.359267 68.6498856,223.798627 Z" id="Path" fill="url(#linearGradient-6)" opacity="0.3"></path>
        </g>
    </g>
</svg>