<?xml version="1.0" encoding="UTF-8" standalone="no"?>
<!DOCTYPE svg PUBLIC "-//W3C//DTD SVG 1.1//EN" "http://www.w3.org/Graphics/SVG/1.1/DTD/svg11.dtd">
<svg width="100%" height="100%" viewBox="0 0 499 665" version="1.1" xmlns="http://www.w3.org/2000/svg" xmlns:xlink="http://www.w3.org/1999/xlink" xml:space="preserve" xmlns:serif="http://www.serif.com/" style="fill-rule:evenodd;clip-rule:evenodd;stroke-linejoin:round;stroke-miterlimit:2;">
    <g id="bundle-analysis">
        <path d="M249.5,139.322C267.812,139.322 425.303,230.249 434.459,246.108C443.615,261.967 443.615,443.821 434.459,459.68C425.303,475.54 267.812,566.467 249.5,566.467C231.188,566.467 73.697,475.54 64.541,459.68C55.385,443.821 55.385,261.967 64.541,246.108C73.697,230.249 231.188,139.322 249.5,139.322Z" style="fill:rgb(240,190,37);"/>
        <path d="M249.3,566.463C240.174,550.255 240.184,368.786 249.33,352.944C258.486,337.085 415.977,246.158 434.289,246.158C434.354,246.158 434.421,246.159 434.489,246.161C443.615,262.369 443.605,443.839 434.459,459.68C425.303,475.54 267.812,566.467 249.5,566.467C249.435,566.467 249.368,566.465 249.3,566.463Z" style="fill:rgb(218,150,27);"/>
        <path d="M126.807,365.905C126.2,366.068 125.552,365.936 125.056,365.549C124.561,365.161 124.277,364.564 124.289,363.935C125.024,325.751 127.221,292.886 130.881,286.546C134.564,280.167 162.244,261.644 195.213,241.777C198.864,239.58 203.414,239.515 207.126,241.608C213.352,245.118 223.167,250.653 230.318,254.686C232.174,255.733 233.338,257.683 233.379,259.814C233.419,261.945 232.33,263.938 230.514,265.055C200.391,283.426 175.955,300.015 172.511,305.981C168.784,312.437 166.352,341.501 165.643,380.204C165.628,381.003 165.138,381.717 164.398,382.018C163.657,382.32 162.809,382.151 162.24,381.59C155.778,375.218 142.159,361.788 142.159,361.788C142.159,361.788 131.761,364.576 126.807,365.905Z" style="fill:rgb(255,0,119);"/>
        <path d="M171.677,307.859C168.421,316.952 166.298,344.469 165.643,380.204C165.628,381.003 165.138,381.717 164.398,382.018C163.657,382.32 162.809,382.151 162.24,381.59L142.159,361.788L126.807,365.905C126.2,366.068 125.552,365.936 125.056,365.549C124.561,365.161 124.277,364.564 124.289,363.935C125.024,325.751 127.221,292.886 130.881,286.546C131.14,286.097 131.519,285.587 132.01,285.021L171.677,307.859Z" style="fill-opacity:0.16;"/>
    </g>
</svg>
