<?xml version="1.0" encoding="UTF-8"?>
<svg width="499px" height="665px" viewBox="0 0 499 665" version="1.1" xmlns="http://www.w3.org/2000/svg" xmlns:xlink="http://www.w3.org/1999/xlink">
    <title>thumbnail</title>
    <g id="thumbnail" stroke="none" stroke-width="1" fill="none" fill-rule="evenodd">
        <g id="Group-6" transform="translate(76, 146)" fill-rule="nonzero">
            <path d="M143.200949,38.5694126 L175.185365,38 L208.807734,38.8885885 C229.54522,38.9446686 246.389356,41.6781563 259.489953,46.372206 L260.31369,46.6715022 C278.091671,53.2231679 290.776064,63.5674367 299.245151,76.6752278 C307.195862,88.9807177 311.852497,104.437952 311.852497,123.50476 L311.852497,143.037832 L344,143.037832 L344,241.345765 L311.852497,241.345765 L311.852497,260.607966 C311.852497,279.665784 307.200756,295.123883 299.253441,307.437359 C290.796625,320.540249 278.136654,330.879681 260.401503,337.434211 C254.338958,339.674797 247.461946,341.488708 239.75408,342.800626 L239.462513,342.850182 L239.704672,343 L108.435632,343 L108.538729,342.850182 L108.24592,342.800626 C100.846369,341.541184 94.2125326,339.819106 88.3299128,337.701028 L87.5984968,337.434211 C69.8633462,330.879681 57.2033747,320.540249 48.7465594,307.437359 C40.7992443,295.123883 36.1475031,279.665784 36.1475031,260.607966 L36.1475031,241.345765 L4,241.345765 L4,143.037832 L36.1475031,143.037832 L36.1475031,123.50476 C36.1475031,104.437952 40.8041377,88.9807177 48.754849,76.6752278 C57.2099851,63.5890286 69.8665512,53.2572548 87.5984968,46.70391 C100.841362,41.8096326 117.983264,38.9460214 139.192221,38.8885893 L143.200949,38.5694126 Z" id="Combined-Shape" fill="#4F46E5"></path>
            <g id="{}" transform="translate(35, 70)" fill="#FFFFFF">
                <path d="M104.721643,243.978843 C87.7610114,243.978843 73.9845653,242.026753 63.3923045,238.122572 C52.8000437,234.218392 44.9576967,228.331796 39.8652637,220.462784 C34.7728306,212.593773 32.226614,202.618225 32.226614,190.53614 L32.226614,158.965594 C32.226614,153.896365 30.7710269,149.488647 27.8598527,145.742439 C24.9486784,141.996231 20.6781075,140.123127 15.0481398,140.123127 L0,140.123127 L0,104.147683 L15.0481398,104.147683 C20.6781075,104.147683 24.9486784,102.274579 27.8598527,98.5283713 C30.7710269,94.7821633 32.226614,90.3744451 32.226614,85.3052164 L32.226614,53.4638596 C32.226614,41.3817749 34.7728306,31.4104583 39.8652637,23.5499098 C44.9576967,15.6893614 52.8000437,9.80699686 63.3923045,5.90281632 C73.9845653,1.99863578 87.7610114,0.0380826859 104.721643,0.0211570477 L104.721643,35.2053274 C95.7589605,35.2053274 89.172747,35.6305841 84.9630023,36.4810974 C80.7532576,37.3316107 77.8074266,39.106687 76.1255091,41.8063263 C74.4435916,44.5059656 73.6026328,48.7303228 73.6026328,54.4793979 L73.6026328,70.4995144 C73.6026328,87.2615381 70.3095261,100.095403 63.7233127,109.00111 C57.1370992,117.906817 45.5603013,123.390723 28.992919,125.45283 L28.992919,118.81798 C45.5433266,120.880087 57.1158807,126.363994 63.7105816,135.2697 C70.3052824,144.175407 73.6026328,157.000809 73.6026328,173.745907 L73.6026328,189.520602 C73.6026328,195.269677 74.4435916,199.494034 76.1255091,202.193674 C77.8074266,204.893313 80.7532576,206.668389 84.9630023,207.518903 C89.172747,208.369416 95.7589605,208.794673 104.721643,208.794673 L104.721643,243.978843 Z" id="Path"></path>
                <path d="M173.163778,244 C190.183821,244 203.989973,242.059193 214.582233,238.17758 C225.174494,234.295967 233.005525,228.383278 238.075325,220.439512 C243.145125,212.495745 245.680025,202.566038 245.680025,190.650388 L245.680025,158.965594 C245.680025,153.91047 247.128539,149.487236 250.025568,145.695893 C252.922596,141.90455 257.177607,140.008879 262.7906,140.008879 L278,140.008879 L278,104.261931 L262.7906,104.261931 C257.177607,104.261931 252.922596,102.36626 250.025568,98.5749168 C247.128539,94.7835738 245.680025,90.3603404 245.680025,85.3052164 L245.680025,53.3496115 C245.680025,41.4339623 243.145125,31.5042545 238.075325,23.5604883 C233.005525,15.6167222 225.174494,9.70403256 214.582233,5.82241953 C203.989973,1.94080651 190.183821,0 173.163778,0 L173.163778,35.2053274 C182.035928,35.2053274 188.599508,35.6115427 192.854519,36.4239734 C197.10953,37.236404 200.09709,38.9966704 201.817201,41.7047725 C203.537312,44.4128746 204.397367,48.6555679 204.397367,54.4328524 L204.397367,70.4106548 C204.397367,87.2008879 207.656524,100.064373 214.174839,109.00111 C220.693153,117.937847 232.281267,123.399186 248.939182,125.385128 L248.939182,118.885683 C232.281267,120.871624 220.693153,126.332963 214.174839,135.2697 C207.656524,144.206437 204.397367,157.069922 204.397367,173.860155 L204.397367,189.567148 C204.397367,195.344432 203.537312,199.587125 201.817201,202.295228 C200.09709,205.00333 197.10953,206.763596 192.854519,207.576027 C188.599508,208.388457 182.035928,208.794673 173.163778,208.794673 L173.163778,244 Z" id="Path"></path>
            </g>
        </g>
    </g>
</svg>