<?xml version="1.0" encoding="UTF-8"?>
<svg width="534px" height="76px" viewBox="0 0 534 76" version="1.1" xmlns="http://www.w3.org/2000/svg" xmlns:xlink="http://www.w3.org/1999/xlink">
    <!-- Generator: Sketch 50.2 (55047) - http://www.bohemiancoding.com/sketch -->
    <title>ReddDeveloper</title>
    <desc>Created with Sketch.</desc>
    <defs></defs>
    <g id="Page-1" stroke="none" stroke-width="1" fill="none" fill-rule="evenodd">
        <path d="M31.3408754,59 L20.8863399,37.636384 L13.2727108,37.636384 L13.2727108,59 L0.0909051895,59 L0.0909051895,0.818237305 L22.4772475,0.818237305 C36.2272344,0.818237305 43.3863184,7.63641262 43.3863184,19.0000381 C43.3863184,27.1250304 39.4090495,32.2386619 33.9261002,35.2216136 L45.7726798,59 L31.3408754,59 Z M13.2727108,11.7273178 L13.2727108,26.8409398 L22.4772475,26.8409398 C27.1363339,26.8409398 30.3181491,24.4545784 30.3181491,19.3409469 C30.3181491,14.3409517 27.2499702,11.7273178 22.4772475,11.7273178 L13.2727108,11.7273178 Z M66.2386133,59.7954538 C52.9431714,59.7954538 44.761361,51.6136434 44.761361,37.8636565 C44.761361,24.5682147 52.2613539,14.7954967 65.8977045,14.7954967 C77.9431476,14.7954967 85.7840492,22.4091258 85.7840492,35.3636589 L85.7840492,40.8181992 L57.2329401,40.8181992 C57.9147576,45.9886488 60.6420277,49.3409183 66.124977,49.3409183 C71.3522448,49.3409183 73.0567886,46.2727394 73.9658786,43.6591055 L85.4431404,46.7272844 C84.0795054,52.4090972 78.7386014,59.7954538 66.2386133,59.7954538 Z M65.7840683,25.1363959 C61.4942996,25.1363959 58.7386204,27.835257 57.6306669,32.4091163 L73.6249699,32.4091163 C73.6249699,28.3182111 70.8976997,25.1363959 65.7840683,25.1363959 Z M128.352232,59 L115.397699,59 L115.397699,54.568186 L114.829517,54.568186 C113.352246,57.8636374 109.60225,59.6818175 105.0568,59.6818175 C95.8522629,59.6818175 88.2386338,52.0681884 88.2386338,37.181839 C88.2386338,21.9545808 96.3068079,14.7954967 105.0568,14.7954967 C109.60225,14.7954967 113.352246,16.727313 114.829517,20.0227644 L115.284063,20.0227644 L115.284063,0.818237305 L128.352232,0.818237305 L128.352232,59 Z M100.511349,37.181839 C100.511349,44.7954681 103.352256,49.3409183 108.920432,49.3409183 C115.05679,49.3409183 116.761334,43.7727418 116.761334,37.181839 C116.761334,30.4772999 114.943154,25.1363959 108.920432,25.1363959 C103.352256,25.1363959 100.511349,29.5682099 100.511349,37.181839 Z M172.28405,59 L159.329517,59 L159.329517,54.568186 L158.761336,54.568186 C157.284064,57.8636374 153.534068,59.6818175 148.988618,59.6818175 C139.784081,59.6818175 132.170452,52.0681884 132.170452,37.181839 C132.170452,21.9545808 140.238626,14.7954967 148.988618,14.7954967 C153.534068,14.7954967 157.284064,16.727313 158.761336,20.0227644 L159.215881,20.0227644 L159.215881,0.818237305 L172.28405,0.818237305 L172.28405,59 Z M144.443168,37.181839 C144.443168,44.7954681 147.284074,49.3409183 152.85225,49.3409183 C158.988608,49.3409183 160.693152,43.7727418 160.693152,37.181839 C160.693152,30.4772999 158.874972,25.1363959 152.85225,25.1363959 C147.284074,25.1363959 144.443168,29.5682099 144.443168,37.181839 Z M198.374976,59 L180.420448,59 L180.420448,0.818237305 L199.17043,0.818237305 C216.102232,0.818237305 226.102222,11.7273178 226.102222,29.7954824 C226.102222,47.9772832 216.102232,59 198.374976,59 Z M198.715885,7.06823134 L187.465896,7.06823134 L187.465896,52.750006 L197.920431,52.750006 C212.352236,52.750006 219.284047,44.0000143 219.284047,29.7954824 C219.284047,15.7045867 212.352236,7.06823134 198.715885,7.06823134 Z M252.306795,59.90909 C239.693171,59.90909 231.965905,50.9318259 231.965905,37.5227478 C231.965905,24.1136696 239.806807,14.7954967 251.624977,14.7954967 C260.715878,14.7954967 270.374959,20.3636732 270.374959,36.6136577 L270.374959,39.4545641 L238.755671,39.4545641 C239.437489,48.8863733 244.409075,53.8863685 252.306795,53.8863685 C257.647699,53.8863685 261.511332,51.6136434 263.215875,47.0681932 L269.693142,48.8863733 C267.647689,55.4772761 261.170423,59.90909 252.306795,59.90909 Z M251.624977,20.8182182 C244.920438,20.8182182 239.977261,25.4773047 238.897717,33.6591151 L263.556784,33.6591151 C263.556784,26.2727585 258.897698,20.8182182 251.624977,20.8182182 Z M312.034051,15.363678 L295.897703,59 L289.079527,59 L272.943179,15.363678 L280.2159,15.363678 L292.261343,50.1363721 L292.715888,50.1363721 L304.761331,15.363678 L312.034051,15.363678 Z M334.715886,59.90909 C322.102261,59.90909 314.374996,50.9318259 314.374996,37.5227478 C314.374996,24.1136696 322.215898,14.7954967 334.034068,14.7954967 C343.124969,14.7954967 352.78405,20.3636732 352.78405,36.6136577 L352.78405,39.4545641 L321.164762,39.4545641 C321.84658,48.8863733 326.818166,53.8863685 334.715886,53.8863685 C340.05679,53.8863685 343.920422,51.6136434 345.624966,47.0681932 L352.102233,48.8863733 C350.05678,55.4772761 343.579514,59.90909 334.715886,59.90909 Z M334.034068,20.8182182 C327.329529,20.8182182 322.386352,25.4773047 321.306808,33.6591151 L345.965875,33.6591151 C345.965875,26.2727585 341.306789,20.8182182 334.034068,20.8182182 Z M366.829533,0.818237305 L366.829533,59 L360.124994,59 L360.124994,0.818237305 L366.829533,0.818237305 Z M393.829523,59.90909 C382.011352,59.90909 374.056814,50.9318259 374.056814,37.4091115 C374.056814,23.7727609 382.011352,14.7954967 393.829523,14.7954967 C405.647693,14.7954967 413.602231,23.7727609 413.602231,37.4091115 C413.602231,50.9318259 405.647693,59.90909 393.829523,59.90909 Z M393.829523,53.8863685 C402.806787,53.8863685 406.897692,46.1591032 406.897692,37.4091115 C406.897692,28.6591198 402.806787,20.8182182 393.829523,20.8182182 C384.852259,20.8182182 380.761353,28.6591198 380.761353,37.4091115 C380.761353,46.1591032 384.852259,53.8863685 393.829523,53.8863685 Z M419.920449,75.3636208 L419.920449,15.363678 L426.397715,15.363678 L426.397715,22.2954895 L427.193169,22.2954895 C428.67044,20.0227644 431.284074,14.7954967 439.806793,14.7954967 C450.82951,14.7954967 458.443139,23.5454884 458.443139,37.2954752 C458.443139,51.1590984 450.82951,59.90909 439.92043,59.90909 C431.511347,59.90909 428.67044,54.6818223 427.193169,52.2954609 L426.624988,52.2954609 L426.624988,75.3636208 L419.920449,75.3636208 Z M451.7386,37.181839 C451.7386,27.9773023 447.534059,20.8182182 439.01134,20.8182182 C430.829529,20.8182182 426.511351,27.409121 426.511351,37.181839 C426.511351,47.0681932 430.943165,53.8863685 439.01134,53.8863685 C447.420422,53.8863685 451.7386,46.5000119 451.7386,37.181839 Z M483.965886,59.90909 C471.352261,59.90909 463.624996,50.9318259 463.624996,37.5227478 C463.624996,24.1136696 471.465898,14.7954967 483.284068,14.7954967 C492.374969,14.7954967 502.03405,20.3636732 502.03405,36.6136577 L502.03405,39.4545641 L470.414762,39.4545641 C471.09658,48.8863733 476.068166,53.8863685 483.965886,53.8863685 C489.30679,53.8863685 493.170422,51.6136434 494.874966,47.0681932 L501.352233,48.8863733 C499.30678,55.4772761 492.829514,59.90909 483.965886,59.90909 Z M483.284068,20.8182182 C476.579529,20.8182182 471.636352,25.4773047 470.556808,33.6591151 L495.215875,33.6591151 C495.215875,26.2727585 490.556789,20.8182182 483.284068,20.8182182 Z M533.46588,16.272768 L531.193155,22.5227621 C530.511338,22.1818533 529.374975,21.613672 527.443159,21.613672 C520.284075,21.613672 516.193169,28.4318473 516.079533,34.3409326 L516.079533,59 L509.374994,59 L509.374994,15.363678 L516.079533,15.363678 L516.079533,22.8636708 L516.534078,22.8636708 C517.784077,18.6591294 522.5568,14.6818604 527.670431,14.6818604 C529.943156,14.6818604 532.102245,15.4773142 533.46588,16.272768 Z" id="ReddDeveloper" fill="#333333"></path>
    </g>
</svg>