<?xml version="1.0" encoding="UTF-8"?>
<svg width="48px" height="48px" viewBox="0 0 48 48" version="1.1" xmlns="http://www.w3.org/2000/svg" xmlns:xlink="http://www.w3.org/1999/xlink">
    <g id="Symbols" stroke="none" stroke-width="1" fill="none" fill-rule="evenodd">
        <g id="Header" transform="translate(-837.000000, -24.000000)" fill-rule="nonzero">
            <g id="Logo">
                <g transform="translate(837.000000, 24.000000)">
                    <g id="Group">
                        <rect id="Rectangle" fill="#D22F2D" x="0" y="0" width="48" height="48" rx="3"></rect>
                        <g id="MASCOT" transform="translate(13.035000, 9.600000)">
                            <path d="M2.71975965,16.3378612 L13.5830585,16.4221276 L13.5830585,28.8 C6.37023767,28.8 1.8425515,28.8 0,28.8 C1.79047872,24.6427925 2.69706527,20.4887463 2.71975965,16.3378612 Z" id="Path" fill="#222222"></path>
                            <path d="M2.71819149,8.22857142 L2.71819149,0 L10.9185464,0 C15.4474773,0 19.1189012,3.68405692 19.1189012,8.22857142 C19.1189012,11.6957078 16.9819166,14.6620073 13.9575201,15.8735974 C14.0851462,21.1906738 16.7259436,25.8829237 20.7335106,28.8 L14.7364034,28.8 C10.5574093,28.8 9.04200503,28.36488 7.51422724,27.5478154 C5.98644948,26.730751 4.78744055,25.531742 3.97037603,24.0039642 C3.15331154,22.4761865 2.71819149,20.9607822 2.71819149,16.7817881 L2.71819149,8.22857142 Z" id="Combined-Shape" fill="#FFFFFF"></path>
                        </g>
                    </g>
                    <path d="M15.75,25.96875 C17.5625,23.5203072 18.46875,20.7859322 18.46875,17.765625 C18.46875,13.2351641 17.2515242,9.56250002 15.75,9.56250002 C14.2484758,9.56250002 13.03125,13.2351641 13.03125,17.765625 C13.03125,20.7859322 13.9375,23.5203072 15.75,25.96875 Z" id="Oval-4" fill="#222222"></path>
                </g>
            </g>
        </g>
    </g>
</svg>