<?xml version="1.0" encoding="UTF-8"?>
<svg width="689px" height="125px" viewBox="0 0 689 125" version="1.1" xmlns="http://www.w3.org/2000/svg" xmlns:xlink="http://www.w3.org/1999/xlink">
    <!-- Generator: Sketch 50.2 (55047) - http://www.bohemiancoding.com/sketch -->
    <title>Group 2</title>
    <desc>Created with Sketch.</desc>
    <defs></defs>
    <g id="Page-1" stroke="none" stroke-width="1" fill="none" fill-rule="evenodd">
        <g id="Group-2">
            <path d="M186.24997,88.1817627 L175.795435,66.8181467 L168.181806,66.8181467 L168.181806,88.1817627 L155,88.1817627 L155,30 L177.386342,30 C191.136329,30 198.295413,36.8181753 198.295413,48.1818008 C198.295413,56.3067931 194.318144,61.4204246 188.835195,64.4033763 L200.681775,88.1817627 L186.24997,88.1817627 Z M168.181806,40.9090805 L168.181806,56.0227025 L177.386342,56.0227025 C182.045429,56.0227025 185.227244,53.6363411 185.227244,48.5227096 C185.227244,43.5227144 182.159065,40.9090805 177.386342,40.9090805 L168.181806,40.9090805 Z M221.147708,88.9772165 C207.852266,88.9772165 199.670456,80.7954061 199.670456,67.0454192 C199.670456,53.7499774 207.170449,43.9772594 220.806799,43.9772594 C232.852242,43.9772594 240.693144,51.5908885 240.693144,64.5454216 L240.693144,69.9999619 L212.142035,69.9999619 C212.823852,75.1704115 215.551123,78.522681 221.034072,78.522681 C226.26134,78.522681 227.965883,75.4545021 228.874973,72.8408682 L240.352235,75.9090471 C238.9886,81.5908599 233.647696,88.9772165 221.147708,88.9772165 Z M220.693163,54.3181586 C216.403394,54.3181586 213.647715,57.0170197 212.539762,61.590879 L228.534065,61.590879 C228.534065,57.4999738 225.806795,54.3181586 220.693163,54.3181586 Z M283.261327,88.1817627 L270.306794,88.1817627 L270.306794,83.7499487 L269.738612,83.7499487 C268.261341,87.0454001 264.511345,88.8635802 259.965894,88.8635802 C250.761358,88.8635802 243.147729,81.2499511 243.147729,66.3636017 C243.147729,51.1363435 251.215903,43.9772594 259.965894,43.9772594 C264.511345,43.9772594 268.261341,45.9090757 269.738612,49.2045271 L270.193157,49.2045271 L270.193157,30 L283.261327,30 L283.261327,88.1817627 Z M255.420444,66.3636017 C255.420444,73.9772308 258.261351,78.522681 263.829527,78.522681 C269.965885,78.522681 271.670429,72.9545045 271.670429,66.3636017 C271.670429,59.6590626 269.852249,54.3181586 263.829527,54.3181586 C258.261351,54.3181586 255.420444,58.7499726 255.420444,66.3636017 Z M327.193145,88.1817627 L314.238612,88.1817627 L314.238612,83.7499487 L313.67043,83.7499487 C312.193159,87.0454001 308.443163,88.8635802 303.897713,88.8635802 C294.693176,88.8635802 287.079547,81.2499511 287.079547,66.3636017 C287.079547,51.1363435 295.147721,43.9772594 303.897713,43.9772594 C308.443163,43.9772594 312.193159,45.9090757 313.67043,49.2045271 L314.124976,49.2045271 L314.124976,30 L327.193145,30 L327.193145,88.1817627 Z M299.352262,66.3636017 C299.352262,73.9772308 302.193169,78.522681 307.761345,78.522681 C313.897703,78.522681 315.602247,72.9545045 315.602247,66.3636017 C315.602247,59.6590626 313.784067,54.3181586 307.761345,54.3181586 C302.193169,54.3181586 299.352262,58.7499726 299.352262,66.3636017 Z M353.284071,88.1817627 L335.329543,88.1817627 L335.329543,30 L354.079525,30 C371.011327,30 381.011317,40.9090805 381.011317,58.9772451 C381.011317,77.1590459 371.011327,88.1817627 353.284071,88.1817627 Z M353.62498,36.249994 L342.37499,36.249994 L342.37499,81.9317687 L352.829526,81.9317687 C367.26133,81.9317687 374.193142,73.181777 374.193142,58.9772451 C374.193142,44.8863494 367.26133,36.249994 353.62498,36.249994 Z M407.21589,89.0908527 C394.602265,89.0908527 386.875,80.1135886 386.875,66.7045105 C386.875,53.2954323 394.715902,43.9772594 406.534072,43.9772594 C415.624973,43.9772594 425.284054,49.5454359 425.284054,65.7954204 L425.284054,68.6363268 L393.664766,68.6363268 C394.346584,78.068136 399.31817,83.0681312 407.21589,83.0681312 C412.556794,83.0681312 416.420426,80.7954061 418.12497,76.2499559 L424.602237,78.068136 C422.556784,84.6590388 416.079518,89.0908527 407.21589,89.0908527 Z M406.534072,49.9999809 C399.829533,49.9999809 394.886356,54.6590674 393.806812,62.8408778 L418.465879,62.8408778 C418.465879,55.4545212 413.806792,49.9999809 406.534072,49.9999809 Z M466.943146,44.5454407 L450.806798,88.1817627 L443.988622,88.1817627 L427.852274,44.5454407 L435.124994,44.5454407 L447.170437,79.3181348 L447.624982,79.3181348 L459.670426,44.5454407 L466.943146,44.5454407 Z M489.624981,89.0908527 C477.011356,89.0908527 469.284091,80.1135886 469.284091,66.7045105 C469.284091,53.2954323 477.124993,43.9772594 488.943163,43.9772594 C498.034063,43.9772594 507.693145,49.5454359 507.693145,65.7954204 L507.693145,68.6363268 L476.073857,68.6363268 C476.755675,78.068136 481.727261,83.0681312 489.624981,83.0681312 C494.965885,83.0681312 498.829517,80.7954061 500.534061,76.2499559 L507.011328,78.068136 C504.965875,84.6590388 498.488609,89.0908527 489.624981,89.0908527 Z M488.943163,49.9999809 C482.238624,49.9999809 477.295447,54.6590674 476.215902,62.8408778 L500.87497,62.8408778 C500.87497,55.4545212 496.215883,49.9999809 488.943163,49.9999809 Z M521.738628,30 L521.738628,88.1817627 L515.034089,88.1817627 L515.034089,30 L521.738628,30 Z M548.738618,89.0908527 C536.920447,89.0908527 528.965909,80.1135886 528.965909,66.5908742 C528.965909,52.9545236 536.920447,43.9772594 548.738618,43.9772594 C560.556788,43.9772594 568.511326,52.9545236 568.511326,66.5908742 C568.511326,80.1135886 560.556788,89.0908527 548.738618,89.0908527 Z M548.738618,83.0681312 C557.715882,83.0681312 561.806787,75.3408659 561.806787,66.5908742 C561.806787,57.8408825 557.715882,49.9999809 548.738618,49.9999809 C539.761353,49.9999809 535.670448,57.8408825 535.670448,66.5908742 C535.670448,75.3408659 539.761353,83.0681312 548.738618,83.0681312 Z M574.829544,104.545383 L574.829544,44.5454407 L581.30681,44.5454407 L581.30681,51.4772522 L582.102264,51.4772522 C583.579535,49.2045271 586.193169,43.9772594 594.715888,43.9772594 C605.738605,43.9772594 613.352234,52.7272511 613.352234,66.4772379 C613.352234,80.3408611 605.738605,89.0908527 594.829524,89.0908527 C586.420442,89.0908527 583.579535,83.863585 582.102264,81.4772236 L581.534083,81.4772236 L581.534083,104.545383 L574.829544,104.545383 Z M606.647695,66.3636017 C606.647695,57.159065 602.443154,49.9999809 593.920434,49.9999809 C585.738624,49.9999809 581.420446,56.5908837 581.420446,66.3636017 C581.420446,76.2499559 585.85226,83.0681312 593.920434,83.0681312 C602.329517,83.0681312 606.647695,75.6817746 606.647695,66.3636017 Z M638.874981,89.0908527 C626.261356,89.0908527 618.534091,80.1135886 618.534091,66.7045105 C618.534091,53.2954323 626.374993,43.9772594 638.193163,43.9772594 C647.284063,43.9772594 656.943145,49.5454359 656.943145,65.7954204 L656.943145,68.6363268 L625.323857,68.6363268 C626.005675,78.068136 630.977261,83.0681312 638.874981,83.0681312 C644.215885,83.0681312 648.079517,80.7954061 649.784061,76.2499559 L656.261328,78.068136 C654.215875,84.6590388 647.738609,89.0908527 638.874981,89.0908527 Z M638.193163,49.9999809 C631.488624,49.9999809 626.545447,54.6590674 625.465902,62.8408778 L650.12497,62.8408778 C650.12497,55.4545212 645.465883,49.9999809 638.193163,49.9999809 Z M688.374975,45.4545307 L686.10225,51.7045248 C685.420432,51.363616 684.28407,50.7954347 682.352254,50.7954347 C675.193169,50.7954347 671.102264,57.61361 670.988628,63.5226953 L670.988628,88.1817627 L664.284089,88.1817627 L664.284089,44.5454407 L670.988628,44.5454407 L670.988628,52.0454335 L671.443173,52.0454335 C672.693172,47.8408921 677.465895,43.8636231 682.579526,43.8636231 C684.852251,43.8636231 687.01134,44.6590769 688.374975,45.4545307 Z" id="ReddDeveloper" fill="#222222"></path>
            <g id="Logo">
                <g id="Group" stroke-width="1">
                    <circle id="Oval-3" fill="#D22F2D" cx="62.5" cy="62.5" r="62.5"></circle>
                    <g id="MASCOT" transform="translate(33.945312, 25.000000)">
                        <path d="M7.08270742,42.5465135 L35.3725482,42.7659574 L35.3725482,75 C16.5891606,75 4.79831121,75 0,75 C4.66270501,64.1739389 7.02360748,53.3561101 7.08270742,42.5465135 Z" id="Path" fill="#222222"></path>
                        <path d="M7.07862367,21.4285714 L7.07862367,0 L28.4337145,0 C40.2278055,0 49.7888053,9.59389822 49.7888053,21.4285714 C49.7888053,30.4575725 44.2237411,38.1823108 36.3477085,41.3374933 C36.6800681,55.1840463 43.5571449,67.4034472 53.9935173,75 L38.3760504,75 C27.4932533,75 23.5468881,73.8668749 19.5683001,71.7391027 C15.5897122,69.6113306 12.4672931,66.4889115 10.3395209,62.5103235 C8.21174881,58.5317356 7.07862367,54.5853704 7.07862367,43.7025732 L7.07862367,21.4285714 Z" id="Combined-Shape" fill="#FFFFFF"></path>
                    </g>
                </g>
                <path d="M41.015625,67.6269531 C45.7356771,61.2508001 48.0957031,54.1300318 48.0957031,46.2646484 C48.0957031,34.4665733 44.9258442,24.9023438 41.015625,24.9023438 C37.1054058,24.9023438 33.9355469,34.4665733 33.9355469,46.2646484 C33.9355469,54.1300318 36.2955729,61.2508001 41.015625,67.6269531 Z" id="Oval-4" fill="#222222"></path>
            </g>
        </g>
    </g>
</svg>