<?xml version="1.0" encoding="UTF-8"?>
<svg width="499px" height="665px" viewBox="0 0 499 665" version="1.1" xmlns="http://www.w3.org/2000/svg" xmlns:xlink="http://www.w3.org/1999/xlink">
    <title>thumbnail</title>
    <defs>
        <linearGradient x1="50%" y1="0%" x2="50%" y2="100%" id="linearGradient-1">
            <stop stop-color="#FFFFFF" stop-opacity="0" offset="0%"></stop>
            <stop stop-color="#3DD424" offset="100%"></stop>
        </linearGradient>
        <linearGradient x1="50%" y1="0%" x2="50%" y2="100%" id="linearGradient-2">
            <stop stop-color="#FFFFFF" stop-opacity="0" offset="0%"></stop>
            <stop stop-color="#02EBF8" offset="100%"></stop>
        </linearGradient>
    </defs>
    <g id="thumbnail" stroke="none" stroke-width="1" fill="none" fill-rule="evenodd">
        <g id="circle-ci" transform="translate(1.000000, 198.000000)">
            <g id="Group">
                <path d="M210,-131.009346 C253.084219,-131.278638 288.229184,-96.5702825 288.498476,-53.4860636 C288.499492,-53.3235333 288.5,-53.1610002 288.5,-52.9984666 L288.5,210 C288.5,253.354353 253.354353,288.5 210,288.5 C166.645647,288.5 131.5,253.354353 131.5,210 L131.5,-52.0171582 C131.5,-95.4515005 166.566506,-130.73787 210,-131.009346 Z" id="Rectangle" fill="url(#linearGradient-1)" opacity="0.900000036" transform="translate(210.000000, 78.500000) rotate(-90.000000) translate(-210.000000, -78.500000) "></path>
                <path d="M328.774759,77.841667 C328.774759,70.5297711 334.489899,64.5954787 341.531768,64.5954787 C348.573637,64.5954787 354.288778,70.5297711 354.288778,77.841667 C354.288778,85.1535629 348.573637,91.0878553 341.531768,91.0878553 C334.489899,91.1938248 328.774759,85.1535629 328.774759,77.841667 Z M341.681139,23.3829787 C316.099053,23.3829787 294.676655,40.9335491 288.645106,64.7521802 C288.645106,64.9611156 288.541114,65.0655833 288.541114,65.2745186 C288.541114,66.7370662 289.685028,67.8862107 291.14092,67.8862107 L313.18727,67.8862107 C314.227193,67.8862107 315.163123,67.2594046 315.579091,66.3191955 L315.579091,66.3191955 C320.154749,56.3947658 330.03401,49.4998989 341.681139,49.4998989 C357.487956,49.4998989 370.382992,62.4538913 370.382992,78.3329787 C370.382992,94.2120662 357.487956,107.166059 341.681139,107.166059 C330.138002,107.166059 320.154749,100.271192 315.579091,90.346762 L315.579091,90.346762 C315.163123,89.4065529 314.227193,88.7797468 313.18727,88.7797468 L291.14092,88.7797468 C289.685028,88.7797468 288.541114,89.9288913 288.541114,91.3914388 C288.541114,91.6003742 288.541114,91.7048418 288.645106,91.9137772 C294.676655,115.732408 316.099053,133.282979 341.681139,133.282979 C371.942875,133.282979 396.485039,108.628606 396.485039,78.228511 C396.485039,47.9328837 371.942875,23.3829787 341.681139,23.3829787 Z" id="path7" fill="#FFFFFF" fill-rule="nonzero"></path>
            </g>
            <g id="Group-2" transform="translate(288.000000, 190.000000)" fill="url(#linearGradient-2)" opacity="0.900000036">
                <path d="M105,-65.2546729 C126.680178,-65.3893244 144.364591,-47.9232243 144.499243,-26.2430463 C144.499748,-26.1617779 144.5,-26.0805081 144.5,-25.9992382 L144.5,105 C144.5,126.815248 126.815248,144.5 105,144.5 C83.1847524,144.5 65.5,126.815248 65.5,105 L65.5,-25.508584 C65.5,-47.3638243 83.1451812,-65.1189367 105,-65.2546729 Z" id="Rectangle" transform="translate(105.000000, 39.500000) scale(-1, 1) rotate(-90.000000) translate(-105.000000, -39.500000) "></path>
            </g>
        </g>
    </g>
</svg>