<?xml version="1.0" encoding="UTF-8"?>
<svg width="499px" height="665px" viewBox="0 0 499 665" version="1.1" xmlns="http://www.w3.org/2000/svg" xmlns:xlink="http://www.w3.org/1999/xlink">
    <title>thumbnail</title>
    <g id="thumbnail" stroke="none" stroke-width="1" fill="none" fill-rule="evenodd">
        <g id="github-octicon" transform="translate(74.000000, 162.000000)" fill="#1B1F23">
            <path d="M175.5,0 C78.53625,0 0,78.4580481 0,175.325247 C0,252.906669 50.236875,318.43448 119.998125,341.665075 C128.773125,343.199171 132.06375,337.939414 132.06375,333.337126 C132.06375,329.173152 131.844375,315.366288 131.844375,300.682799 C87.75,308.791592 76.3425,289.944127 72.8325,280.082082 C70.858125,275.041481 62.3025,259.481366 54.84375,255.317391 C48.70125,252.030043 39.92625,243.92125 54.624375,243.702094 C68.445,243.482937 78.316875,256.413174 81.6075,261.672931 C97.4025,288.190875 122.630625,280.739552 132.721875,276.137264 C134.2575,264.741123 138.864375,257.070644 143.91,252.687512 C104.86125,248.304381 64.0575,233.182579 64.0575,166.120672 C64.0575,147.054051 70.858125,131.274779 82.04625,119.002012 C80.29125,114.61888 74.14875,96.6480425 83.80125,72.540821 C83.80125,72.540821 98.499375,67.9385333 132.06375,90.5116588 C146.10375,86.5668408 161.02125,84.5944318 175.93875,84.5944318 C190.85625,84.5944318 205.77375,86.5668408 219.81375,90.5116588 C253.378125,67.7193767 268.07625,72.540821 268.07625,72.540821 C277.72875,96.6480425 271.58625,114.61888 269.83125,119.002012 C281.019375,131.274779 287.82,146.834894 287.82,166.120672 C287.82,233.401735 246.796875,248.304381 207.748125,252.687512 C214.11,258.166426 219.594375,268.685941 219.594375,285.122683 C219.594375,308.572435 219.375,327.419899 219.375,333.337126 C219.375,337.939414 222.665625,343.418328 231.440625,341.665075 C300.763125,318.43448 351,252.687512 351,175.325247 C351,78.4580481 272.46375,0 175.5,0 Z" id="Path"></path>
        </g>
    </g>
</svg>