<?xml version="1.0" encoding="UTF-8"?>
<svg width="499px" height="665px" viewBox="0 0 499 665" version="1.1" xmlns="http://www.w3.org/2000/svg" xmlns:xlink="http://www.w3.org/1999/xlink">
    <title>thumbnail</title>
    <g id="thumbnail" stroke="none" stroke-width="1" fill="none" fill-rule="evenodd">
        <g id="typescript" transform="translate(95, 119)">
            <rect id="Rectangle-Copy-4" fill="#95A2B8" fill-rule="nonzero" x="48" y="0" width="214" height="214"></rect>
            <rect id="Rectangle-Copy-4" fill="#485569" fill-rule="nonzero" x="25" y="27" width="260" height="260"></rect>
            <rect id="Rectangle" fill="#1D293B" fill-rule="nonzero" x="0" y="59" width="310" height="310"></rect>
            <path d="M192.380702,306.238621 L192.380702,336.447845 C197.305116,338.965431 203.129335,340.853017 209.853358,342.11181 C216.577381,343.370603 223.663866,344 231.114026,344 C238.374784,344 245.271869,343.307845 251.806491,341.922931 C258.341114,340.538621 264.070935,338.256983 268.995349,335.078621 C273.919764,331.900862 277.818511,327.746724 280.690986,322.617414 C283.56346,317.488103 285,311.147672 285,303.595517 C285,298.119828 284.179466,293.321207 282.537793,289.199052 C280.896119,285.076897 278.528915,281.410948 275.434969,278.201207 C272.341628,274.991466 268.632281,272.11181 264.307534,269.562845 C259.982787,267.013879 255.105571,264.606724 249.675886,262.341379 C245.698474,260.704828 242.13133,259.115948 238.974452,257.574138 C235.817574,256.031724 233.1345,254.458534 230.924625,252.853966 C228.71475,251.248793 227.010145,249.549483 225.81081,247.756034 C224.611474,245.961983 224.011202,243.932586 224.011202,241.666638 C224.011202,239.590172 224.547937,237.717672 225.621409,236.049741 C226.694881,234.38181 228.210085,232.950431 230.167023,231.754397 C232.124565,230.558966 234.523236,229.630259 237.364244,228.969483 C240.205858,228.308707 243.362131,227.978621 246.834878,227.978621 C249.360017,227.978621 252.027358,228.1675 254.836901,228.544655 C257.646443,228.922414 260.471719,229.504741 263.313332,230.291034 C266.154341,231.077931 268.91608,232.069397 271.599759,233.264828 C274.282832,234.460862 276.760773,235.845172 279.03358,237.418966 L279.03358,209.192069 C274.425034,207.43 269.389884,206.124138 263.928733,205.274483 C258.467582,204.424828 252.201026,204 245.130273,204 C237.932446,204 231.114026,204.771207 224.674406,206.313017 C218.234787,207.854828 212.568503,210.261983 207.674949,213.534483 C202.782,216.807586 198.915324,220.97681 196.074315,226.043362 C193.233307,231.10931 191.8125,237.166724 191.8125,244.215603 C191.8125,253.215431 194.416909,260.893707 199.625727,267.250431 C204.83394,273.606552 212.741565,278.9875 223.348602,283.393276 C227.515415,285.092586 231.398429,286.759914 234.99704,288.396466 C238.595651,290.033017 241.70533,291.732328 244.324866,293.494397 C246.945009,295.256466 249.012682,297.176034 250.528491,299.253103 C252.043696,301.329569 252.801298,303.689655 252.801298,306.333362 C252.801298,308.28431 252.327494,310.093448 251.380491,311.761379 C250.433489,313.42931 248.996949,314.876379 247.071477,316.103793 C245.146006,317.331207 242.74673,318.29069 239.874256,318.982845 C237.001176,319.675603 233.63977,320.021379 229.788222,320.021379 C223.222134,320.021379 216.719582,318.873017 210.279358,316.57569 C203.839739,314.278966 197.873318,310.833276 192.380702,306.238621 L192.380702,306.238621 Z M141.454943,231.808103 L180.315341,231.808103 L180.315341,207.017241 L72,207.017241 L72,231.808103 L110.670392,231.808103 L110.670392,342.189655 L141.454943,342.189655 L141.454943,231.808103 Z" id="Shape" fill="#FFFFFF"></path>
        </g>
    </g>
</svg>