<?xml version="1.0" encoding="UTF-8"?>
<svg width="499px" height="665px" viewBox="0 0 499 665" version="1.1" xmlns="http://www.w3.org/2000/svg" xmlns:xlink="http://www.w3.org/1999/xlink">
    <title>thumbnail</title>
    <defs>
        <path d="M422.4,24.225 L422.4,257.775 C422.4,261.420079 419.445079,264.375 415.8,264.375 L24.2,264.375 C20.5549207,264.375 17.6,261.420079 17.6,257.775 L17.6,24.225 C17.6,20.5799207 20.5549207,17.625 24.2,17.625 L415.8,17.625 C419.445079,17.625 422.4,20.5799207 422.4,24.225 Z" id="path-1"></path>
    </defs>
    <g id="thumbnail" stroke="none" stroke-width="1" fill="none" fill-rule="evenodd">
        <g id="remix-og-image" transform="translate(250, 333) rotate(-10) translate(-250, -333)translate(30, 192)">
            <rect id="Rectangle" fill="#FFFFFF" x="0" y="0" width="440" height="282" rx="17.6"></rect>
            <mask id="mask-2" fill="white">
                <use xlink:href="#path-1"></use>
            </mask>
            <use id="Rectangle-Copy-5" fill="#2563EB" xlink:href="#path-1"></use>
            <path d="M321.145398,116.147351 L458.272222,295.21875 L458.272222,295.21875 C243.038889,295.21875 135.422222,295.21875 135.422222,295.21875 C188.269598,235.217509 241.116973,175.216269 293.964348,115.215028 C300.388962,107.920725 311.510341,107.215702 318.804644,113.640315 C319.664658,114.397791 320.448631,115.237455 321.145398,116.147351 Z" id="Path-15-Copy" fill="#16A34A" mask="url(#mask-2)"></path>
            <path d="M145.145398,85.3036006 L282.272222,264.375 L282.272222,264.375 C67.0388889,264.375 -40.5777778,264.375 -40.5777778,264.375 C12.2695976,204.373759 65.116973,144.372519 117.964348,84.3712778 C124.388962,77.0769747 135.510341,76.3719519 142.804644,82.7965652 C143.664658,83.5540408 144.448631,84.3937055 145.145398,85.3036006 Z" id="Path-15" fill="#4ADE80" mask="url(#mask-2)"></path>
            <path d="M222.588821,43 C239.078422,43 247.272727,50.8358406 247.272727,63.3528102 C247.272727,72.7150682 241.506416,78.8207373 233.716777,79.8384648 C240.292419,81.1614758 244.136394,84.9267544 244.844733,92.3554346 L244.947241,93.7215726 L245.036709,94.9986876 L245.114027,96.1933595 L245.167728,97.0941613 L245.225409,98.1570213 L245.25532,98.7635883 L245.297956,99.7271812 L245.332345,100.637288 L245.349386,101.160415 L245.372421,101.998632 L245.392294,102.957054 L245.399501,103.420175 L245.412497,104.762239 L245.416674,106.162676 L245.416907,107 L228.412244,107 L228.413097,106.650768 L228.413097,106.650768 L228.419153,105.97254 L228.419153,105.97254 L228.429302,105.311804 L228.458715,103.71143 L228.466154,103.174911 L228.471979,102.333627 L228.471979,102.333627 L228.471183,101.795642 L228.466229,101.231446 L228.459345,100.78863 L228.445355,100.168691 L228.425193,99.511258 L228.398129,98.8122279 L228.363429,98.0674975 L228.342986,97.6767124 L228.3082,97.0660678 L228.268193,96.4245239 L228.206192,95.5180754 L228.152799,94.7977023 C228.137464,94.575509 228.119711,94.3585566 228.099538,94.1467313 L228.055967,93.7298833 C227.494413,88.8089375 225.539494,86.7976896 222.19121,86.1268609 L221.908961,86.0740275 C221.718645,86.0408292 221.524028,86.0116332 221.325111,85.9861709 L221.023509,85.9507438 C220.972705,85.9452946 220.921632,85.9400705 220.87029,85.9350671 L220.559012,85.907662 L220.559012,85.907662 L220.241284,85.8853524 L220.241284,85.8853524 L219.917105,85.8679367 L219.917105,85.8679367 L219.590065,85.8553258 L219.256712,85.847111 L218.917046,85.8430973 L218.917046,85.8430973 L192,85.8426047 L192,72.5116618 L219.554177,72.5116618 C220.004711,72.5116618 220.44131,72.5031315 220.863975,72.4857295 L221.281994,72.4653575 L221.281994,72.4653575 L221.690725,72.4389951 L221.690725,72.4389951 L222.090165,72.4065662 C222.155964,72.4006516 222.221376,72.3944811 222.286401,72.3880532 L222.671907,72.3463825 C222.925815,72.3165252 223.173529,72.2824969 223.41505,72.2441967 L223.772687,72.18353 C228.243919,71.374179 230.479452,69.004379 230.479452,64.3799257 C230.479452,59.1901068 226.83781,56.0447832 219.554177,56.0447832 L192,56.0447832 L192,43 L222.588821,43 Z M209.729131,97.3030303 C211.929013,97.3030303 212.84943,98.5098553 213.177326,99.6649861 L213.220586,99.8310935 L213.220586,99.8310935 L213.256087,99.9956444 L213.279209,100.125601 L213.289091,100.18987 L213.305644,100.316722 L213.31811,100.440966 L213.322884,100.501977 L213.329659,100.621506 L213.33172,100.679917 L213.333333,100.793763 L213.333333,107 L192,107 L192,97.3030303 L209.729131,97.3030303 Z" id="remix" fill="#FCD34D" fill-rule="nonzero" mask="url(#mask-2)"></path>
        </g>
    </g>
</svg>