<?xml version="1.0" encoding="UTF-8"?>
<svg width="384px" height="472px" viewBox="0 0 384 472" version="1.1" xmlns="http://www.w3.org/2000/svg" xmlns:xlink="http://www.w3.org/1999/xlink">
    <title>thumbnail</title>
    <defs>
        <path d="M82,0 C108.509668,-4.86974701e-15 130,21.490332 130,48 L130,290 C130,316.509668 108.509668,338 82,338 L48,338 C21.490332,338 1.623249e-15,316.509668 0,290 L0,48 C-3.24649801e-15,21.490332 21.490332,3.24649801e-15 48,0 L82,0 Z M49,295 C44.581722,295 41,298.581722 41,303 C41,307.418278 44.581722,311 49,311 C53.418278,311 57,307.418278 57,303 C57,298.581722 53.418278,295 49,295 Z M81,295 C76.581722,295 73,298.581722 73,303 C73,307.418278 76.581722,311 81,311 C85.418278,311 89,307.418278 89,303 C89,298.581722 85.418278,295 81,295 Z M97,271 C92.581722,271 89,274.581722 89,279 C89,283.418278 92.581722,287 97,287 C101.418278,287 105,283.418278 105,279 C105,274.581722 101.418278,271 97,271 Z M65,271 C60.581722,271 57,274.581722 57,279 C57,283.418278 60.581722,287 65,287 C69.418278,287 73,283.418278 73,279 C73,274.581722 69.418278,271 65,271 Z M33,271 C28.581722,271 25,274.581722 25,279 C25,283.418278 28.581722,287 33,287 C37.418278,287 41,283.418278 41,279 C41,274.581722 37.418278,271 33,271 Z M97,51 C92.581722,51 89,54.581722 89,59 C89,63.418278 92.581722,67 97,67 C101.418278,67 105,63.418278 105,59 C105,54.581722 101.418278,51 97,51 Z M65,51 C60.581722,51 57,54.581722 57,59 C57,63.418278 60.581722,67 65,67 C69.418278,67 73,63.418278 73,59 C73,54.581722 69.418278,51 65,51 Z M33,51 C28.581722,51 25,54.581722 25,59 C25,63.418278 28.581722,67 33,67 C37.418278,67 41,63.418278 41,59 C41,54.581722 37.418278,51 33,51 Z M49,27 C44.581722,27 41,30.581722 41,35 C41,39.418278 44.581722,43 49,43 C53.418278,43 57,39.418278 57,35 C57,30.581722 53.418278,27 49,27 Z M81,27 C76.581722,27 73,30.581722 73,35 C73,39.418278 76.581722,43 81,43 C85.418278,43 89,39.418278 89,35 C89,30.581722 85.418278,27 81,27 Z" id="path-1"></path>
    </defs>
    <g id="thumbnail" stroke="none" stroke-width="1" fill="none" fill-rule="evenodd">
        <g id="bandage" transform="translate(192, 236) rotate(45) translate(-192, -236)translate(127, 67)">
            <mask id="mask-2" fill="white">
                <use xlink:href="#path-1"></use>
            </mask>
            <use id="body" fill="#FFAC4D" xlink:href="#path-1"></use>
            <path d="M106,108 C117.045695,108 127.045695,112.477153 134.284271,119.715729 C141.522847,126.954305 146,136.954305 146,148 L146,169 L-16,169 L-16,148 C-16,136.954305 -11.5228475,126.954305 -4.28427125,119.715729 C2.954305,112.477153 12.954305,108 24,108 L106,108 Z" id="shadow-top" fill="#FFF5C2" mask="url(#mask-2)"></path>
            <path d="M106,169 C117.045695,169 127.045695,173.477153 134.284271,180.715729 C141.522847,187.954305 146,197.954305 146,209 L146,230 L-16,230 L-16,209 C-16,197.954305 -11.5228475,187.954305 -4.28427125,180.715729 C2.954305,173.477153 12.954305,169 24,169 L106,169 Z" id="shadow-bottom" fill="#CF772E" mask="url(#mask-2)" transform="translate(65, 199.5) scale(1, -1) translate(-65, -199.5)"></path>
            <path d="M24,124 L106,124 C119.254834,124 130,134.745166 130,148 L130,190 C130,203.254834 119.254834,214 106,214 L24,214 C10.745166,214 0,203.254834 0,190 L0,148 C0,134.745166 10.745166,124 24,124 Z" id="middle" fill="#FFAC4D" mask="url(#mask-2)"></path>
            <g id="DO-NOT-USE" mask="url(#mask-2)" fill="#79320E" fill-rule="nonzero">
                <g transform="translate(28.315, 145.5)">
                    <path d="M-9.09882781e-14,16.5 L-9.09882781e-14,6.3159836e-14 L7.348,6.3159836e-14 C8.34533333,6.3159836e-14 9.20333333,0.363 9.922,1.089 C10.6406667,1.815 11,2.67666667 11,3.674 L11,12.826 C11,13.8233333 10.6406667,14.685 9.922,15.411 C9.20333333,16.137 8.34533333,16.5 7.348,16.5 L-9.09882781e-14,16.5 Z M3.674,14.674 L5.5,14.674 C6.01333333,14.674 6.44966667,14.4906667 6.809,14.124 C7.16833333,13.7573333 7.348,13.3246667 7.348,12.826 L7.348,3.674 C7.348,3.16066667 7.16833333,2.72433333 6.809,2.365 C6.44966667,2.00566667 6.01333333,1.826 5.5,1.826 L3.674,1.826 L3.674,14.674 Z" id="Shape"></path>
                    <path d="M18.348,5.55290509e-14 L22.022,5.55290509e-14 C23.0193333,5.55290509e-14 23.8773333,0.363 24.596,1.089 C25.3146667,1.815 25.674,2.67666667 25.674,3.674 L25.674,12.826 C25.674,13.8233333 25.3146667,14.685 24.596,15.411 C23.8773333,16.137 23.0193333,16.5 22.022,16.5 L18.348,16.5 C17.3506667,16.5 16.489,16.1406667 15.763,15.422 C15.037,14.7033333 14.674,13.838 14.674,12.826 L14.674,3.674 C14.674,2.662 15.037,1.79666667 15.763,1.078 C16.489,0.359333333 17.3506667,5.55290509e-14 18.348,5.55290509e-14 Z M18.348,3.674 L18.348,12.826 C18.348,13.3246667 18.5276667,13.7573333 18.887,14.124 C19.2463333,14.4906667 19.6753333,14.674 20.174,14.674 C20.6873333,14.674 21.1236667,14.4906667 21.483,14.124 C21.8423333,13.7573333 22.022,13.3246667 22.022,12.826 L22.022,3.674 C22.022,3.16066667 21.8423333,2.72433333 21.483,2.365 C21.1236667,2.00566667 20.6873333,1.826 20.174,1.826 C19.6753333,1.826 19.2463333,2.00566667 18.887,2.365 C18.5276667,2.72433333 18.348,3.16066667 18.348,3.674 Z" id="Shape"></path>
                    <polygon id="Path" points="34.848 16.5 34.848 7.0294782e-14 35.706 7.0294782e-14 45.848 9.174 45.848 7.0294782e-14 47.696 7.0294782e-14 47.696 16.5 46.86 16.5 36.696 7.326 36.696 16.5"></polygon>
                    <path d="M55.022,4.04465448e-14 L58.696,4.04465448e-14 C59.6933333,4.04465448e-14 60.5513333,0.363 61.27,1.089 C61.9886667,1.815 62.348,2.67666667 62.348,3.674 L62.348,12.826 C62.348,13.8233333 61.9886667,14.685 61.27,15.411 C60.5513333,16.137 59.6933333,16.5 58.696,16.5 L55.022,16.5 C54.0246667,16.5 53.163,16.1406667 52.437,15.422 C51.711,14.7033333 51.348,13.838 51.348,12.826 L51.348,3.674 C51.348,2.662 51.711,1.79666667 52.437,1.078 C53.163,0.359333333 54.0246667,4.04465448e-14 55.022,4.04465448e-14 Z M55.022,3.674 L55.022,12.826 C55.022,13.3246667 55.2016667,13.7573333 55.561,14.124 C55.9203333,14.4906667 56.3493333,14.674 56.848,14.674 C57.3613333,14.674 57.7976667,14.4906667 58.157,14.124 C58.5163333,13.7573333 58.696,13.3246667 58.696,12.826 L58.696,3.674 C58.696,3.16066667 58.5163333,2.72433333 58.157,2.365 C57.7976667,2.00566667 57.3613333,1.826 56.848,1.826 C56.3493333,1.826 55.9203333,2.00566667 55.561,2.365 C55.2016667,2.72433333 55.022,3.16066667 55.022,3.674 Z" id="Shape"></path>
                    <polygon id="Path" points="67.87 16.5 67.87 1.826 64.196 1.826 64.196 3.83841598e-14 75.196 3.83841598e-14 75.196 1.826 71.522 1.826 71.522 16.5"></polygon>
                    <path d="M25.696,28 L29.348,28 L29.348,40.826 C29.348,41.8233333 28.9886667,42.685 28.27,43.411 C27.5513333,44.137 26.6933333,44.5 25.696,44.5 L22.022,44.5 C21.0246667,44.5 20.163,44.1406667 19.437,43.422 C18.711,42.7033333 18.348,41.838 18.348,40.826 L18.348,28 L22.022,28 L22.022,40.826 C22.022,41.3246667 22.2016667,41.7573333 22.561,42.124 C22.9203333,42.4906667 23.3493333,42.674 23.848,42.674 C24.3613333,42.674 24.7976667,42.4906667 25.157,42.124 C25.5163333,41.7573333 25.696,41.3246667 25.696,40.826 L25.696,28 Z" id="Path"></path>
                    <path d="M42.196,31.674 L40.37,31.674 C40.2086667,30.442 39.6293333,29.826 38.632,29.826 C37.9866667,29.826 37.5026667,29.98 37.18,30.288 C36.8573333,30.596 36.696,31.058 36.696,31.674 C36.696,32.1286667 36.872,32.5613333 37.224,32.972 L41.118,37.328 C41.8366667,38.1346667 42.196,39 42.196,39.924 L42.196,40.826 C42.196,41.8233333 41.8366667,42.685 41.118,43.411 C40.3993333,44.137 39.534,44.5 38.522,44.5 L36.696,44.5 C35.4786667,44.5 34.562,44.1956667 33.946,43.587 C33.33,42.9783333 33.022,42.058 33.022,40.826 L34.87,40.826 C34.87,40.958 34.87,41.0606667 34.87,41.134 C34.87,41.6326667 35.0606667,42.014 35.442,42.278 C35.8233333,42.542 36.2413333,42.674 36.696,42.674 C37.3413333,42.674 37.807,42.5163333 38.093,42.201 C38.379,41.8856667 38.522,41.4273333 38.522,40.826 C38.522,40.3566667 38.346,39.924 37.994,39.528 L34.1,35.172 C33.3813333,34.38 33.022,33.5146667 33.022,32.576 L33.022,31.674 C33.022,30.6766667 33.3813333,29.815 34.1,29.089 C34.8186667,28.363 35.684,28 36.696,28 L38.522,28 C40.8246667,28 42.0493333,29.2246667 42.196,31.674 Z" id="Path"></path>
                    <polygon id="Path" points="45.848 44.5 45.848 28 55.022 28 55.022 29.826 49.522 29.826 49.522 35.326 53.196 35.326 53.196 37.174 49.522 37.174 49.522 42.674 55.022 42.674 55.022 44.5"></polygon>
                </g>
            </g>
        </g>
    </g>
</svg>