<?xml version="1.0" encoding="UTF-8"?>
<svg width="499px" height="665px" viewBox="0 0 499 665" version="1.1" xmlns="http://www.w3.org/2000/svg" xmlns:xlink="http://www.w3.org/1999/xlink">
    <title>thumbnail</title>
    <g id="thumbnail" stroke="none" stroke-width="1" fill="none" fill-rule="evenodd">
        <g id="Group-3" transform="translate(124.000000, 208.000000)">
            <path d="M125,-2.80185632 C135.235446,-2.80185632 145.470803,1.09934878 153.286828,8.90449386 L153.286828,8.90449386 L241.075779,96.666992 C248.904606,104.481123 252.809285,114.72199 252.806199,124.961046 C252.803114,135.197615 248.893638,145.43236 241.080243,153.234879 L241.080243,153.234879 L153.283739,241.004923 C145.470803,248.806982 135.235446,252.708187 125,252.708187 C114.764554,252.708187 104.529197,248.806982 96.7131716,241.001837 L96.7131716,241.001837 L8.92422143,153.239338 C1.09539415,145.425208 -2.80928519,135.18434 -2.80619914,124.945284 C-2.80311384,114.708715 1.10636248,104.47397 8.91975683,96.6714517 L8.91975683,96.6714517 L96.7162612,8.90140692 C104.529197,1.09934878 114.764554,-2.80185632 125,-2.80185632 Z" id="Combined-Shape" stroke="#FFFFFF" stroke-width="16" fill="#1C78C0"></path>
            <path d="M166.829138,85.9207997 C166.829138,84.2086346 166.061609,82.5866526 164.737438,81.5011403 C163.413266,80.415628 161.672468,79.980943 159.993393,80.316758 L102.843004,91.7468131 C100.171685,92.2810539 98.2488073,94.6266155 98.2488073,97.3508548 L98.2488073,149.436416 C96.461261,149.015218 94.5376971,148.786046 92.5337798,148.786046 C83.0648365,148.786046 75.3886972,153.903281 75.3886972,160.216101 C75.3886972,166.52892 83.0648365,171.646156 92.5337798,171.646156 C102.002723,171.646156 109.678805,166.52892 109.678862,160.216101 L109.678862,113.46609 L155.399083,104.322045 L155.399083,138.006361 C153.611422,137.585163 151.687744,137.355991 149.684055,137.355991 C140.214826,137.355991 132.538972,142.473226 132.538972,148.786046 C132.538972,155.098865 140.214826,160.216101 149.684055,160.216101 C159.153284,160.216101 166.829138,155.098865 166.829138,148.786046 L166.829138,85.9207997 Z" id="Path" fill="#FFFFFF"></path>
        </g>
    </g>
</svg>