<?xml version="1.0" encoding="UTF-8"?>
<svg width="499px" height="665px" viewBox="0 0 499 665" version="1.1" xmlns="http://www.w3.org/2000/svg" xmlns:xlink="http://www.w3.org/1999/xlink">
    <title>thumbnail</title>
    <g id="thumbnail" stroke="none" stroke-width="1" fill="none" fill-rule="evenodd">
        <g id="degree" transform="translate(60.000000, 161.000000)">
            <g id="RIGHT" transform="translate(201.375421, 49.000000)">
                <path d="M146.624579,0 C164.297691,-7.41164303e-15 178.624579,14.326888 178.624579,32 L178.624579,32 L178.624579,164 C178.624579,181.673112 164.297691,196 146.624579,196 L146.624579,196 L21.7861952,196 C18.1364009,196 14.6193556,194.631035 11.9299805,192.163595 C5.99693073,186.720158 5.60002127,177.497694 11.0434584,171.564644 L11.0434584,171.564644 L13.6663284,168.705858 C24.8719614,156.492329 24.8965986,137.743701 13.7231035,125.500764 L13.7231035,125.500764 L8.36381324,119.628523 C-2.80968187,107.385586 -2.78504461,88.6369583 8.42058832,76.4234292 L8.42058832,76.4234292 L13.6663284,70.7058584 C24.8719614,58.4923293 24.8965986,39.7437014 13.7231035,27.5007642 L13.7231035,27.5007642 L11.0434584,24.5646438 C8.57618237,21.8612189 7.20832223,18.3333031 7.20832223,14.6732543 C7.20832223,6.56943972 13.7777619,3.59992588e-14 21.8815765,0 L21.8815765,0 Z M142.761924,62.72 L65.9621604,62.72 C61.0136891,62.72 57.0021604,66.7315286 57.0021604,71.68 C57.0021604,76.6284714 61.0136891,80.64 65.9621604,80.64 L65.9621604,80.64 L142.761924,80.64 C147.710396,80.64 151.721924,76.6284714 151.721924,71.68 C151.721924,66.7315286 147.710396,62.72 142.761924,62.72 L142.761924,62.72 Z M142.761924,26.88 L65.9621604,26.88 C61.0136891,26.88 57.0021604,30.8915286 57.0021604,35.84 C57.0021604,40.7884714 61.0136891,44.8 65.9621604,44.8 L65.9621604,44.8 L142.761924,44.8 C147.710396,44.8 151.721924,40.7884714 151.721924,35.84 C151.721924,30.8915286 147.710396,26.88 142.761924,26.88 L142.761924,26.88 Z" id="Combined-Shape" fill="#95A2B8"></path>
                <g id="Group-2" transform="translate(57.002160, 26.880000)"></g>
            </g>
            <g id="LEFT" fill="#95A2B8">
                <path d="M156.743003,0 C164.846817,3.59992588e-14 171.416257,6.56943972 171.416257,14.6732543 C171.416257,18.3333031 170.048397,21.8612189 167.581121,24.5646438 L164.901476,27.5007642 C153.727981,39.7437014 153.752618,58.4923293 164.958251,70.7058584 L170.203991,76.4234292 C181.409624,88.6369583 181.434261,107.385586 170.260766,119.628523 L164.901476,125.500764 C153.727981,137.743701 153.752618,156.492329 164.958251,168.705858 L167.581121,171.564644 C173.024558,177.497694 172.627649,186.720158 166.694599,192.163595 C164.005224,194.631035 160.488178,196 156.838384,196 L32,196 C14.326888,196 -4.94109535e-15,181.673112 0,164 L0,32 C-2.164332e-15,14.326888 14.326888,-7.41164303e-15 32,0 L156.743003,0 Z M112.662419,98.56 L35.8626549,98.56 C30.9141835,98.56 26.9026549,102.571529 26.9026549,107.52 C26.9026549,112.468471 30.9141835,116.48 35.8626549,116.48 L35.8626549,116.48 L112.662419,116.48 C117.61089,116.48 121.622419,112.468471 121.622419,107.52 C121.622419,102.571529 117.61089,98.56 112.662419,98.56 L112.662419,98.56 Z M112.662419,62.72 L35.8626549,62.72 C30.9141835,62.72 26.9026549,66.7315286 26.9026549,71.68 C26.9026549,76.6284714 30.9141835,80.64 35.8626549,80.64 L35.8626549,80.64 L112.662419,80.64 C117.61089,80.64 121.622419,76.6284714 121.622419,71.68 C121.622419,66.7315286 117.61089,62.72 112.662419,62.72 L112.662419,62.72 Z M112.662419,26.88 L35.8626549,26.88 C30.9141835,26.88 26.9026549,30.8915286 26.9026549,35.84 C26.9026549,40.7884714 30.9141835,44.8 35.8626549,44.8 L35.8626549,44.8 L112.662419,44.8 C117.61089,44.8 121.622419,40.7884714 121.622419,35.84 C121.622419,30.8915286 117.61089,26.88 112.662419,26.88 L112.662419,26.88 Z" id="Combined-Shape"></path>
            </g>
            <g id="MEDAL" transform="translate(253.000000, 192.000000)">
                <path d="M24.0430108,52.204461 L79.9569892,52.204461 L79.9569892,132.714549 C79.9569892,137.408563 76.1517392,141.213813 71.4577255,141.213813 C69.452335,141.213813 67.5115353,140.504713 65.9784946,139.211896 L58.4467123,132.860323 C54.7226241,129.719788 49.2773759,129.719788 45.5532877,132.860323 L38.0215054,139.211896 C34.4331199,142.237992 29.0710235,141.782166 26.0449278,138.19378 C24.7521103,136.660739 24.0430108,134.71994 24.0430108,132.714549 L24.0430108,52.204461 L24.0430108,52.204461 Z" id="Rectangle" fill="#FF4545"></path>
                <ellipse id="Oval" stroke="#485569" stroke-width="32" fill="#FFFFFF" cx="52" cy="52.204461" rx="36" ry="36.204461"></ellipse>
            </g>
        </g>
    </g>
</svg>