<?xml version="1.0" encoding="UTF-8"?>
<svg width="499px" height="665px" viewBox="0 0 499 665" version="1.1" xmlns="http://www.w3.org/2000/svg" xmlns:xlink="http://www.w3.org/1999/xlink">
    <title>thumbnail</title>
    <g id="thumbnail" stroke="none" stroke-width="1" fill="none" fill-rule="evenodd">
        <g id="generics" transform="translate(26, 264)" fill-rule="nonzero">
            <g id="W&lt;T[F]&gt;" transform="translate(2, 19)">
                <path d="M12.8,80.2 C8.6,80.2 5.41666667,78.8666667 3.25,76.2 C1.08333333,73.5333333 0,69.4666667 0,64 C0,59.2666667 0.9,53.1166667 2.7,45.55 C4.5,37.9833333 6.63333333,30.8666667 9.1,24.2 L22,24.2 L21.2,26.3 C19,32.6333333 17.1,39.3333333 15.5,46.4 C13.9,53.4666667 13.1333333,58.6 13.2,61.8 C13.2,63.6 13.5166667,64.9 14.15,65.7 C14.7833333,66.5 15.7333333,66.9 17,66.9 C18.9333333,66.9 20.4166667,66.0833333 21.45,64.45 C22.4833333,62.8166667 23.3333333,60.1333333 24,56.4 L25.7,46.5 L37.6,46.5 L35.8,56.4 C35.2,60.2666667 35.1,62.9833333 35.5,64.55 C35.9,66.1166667 36.8333333,66.9 38.3,66.9 C40.6333333,66.9 42.6166667,65.05 44.25,61.35 C45.8833333,57.65 47.1166667,52.6333333 47.95,46.3 C48.7833333,39.9666667 49.1666667,32.8 49.1,24.8 C49.1,24.6 49.1,24.4 49.1,24.2 L62,24.2 C62.0666667,24.9333333 62.1,26.1 62.1,27.7 C62.1,38.7666667 61.15,48.2333333 59.25,56.1 C57.35,63.9666667 54.6333333,69.95 51.1,74.05 C47.5666667,78.15 43.4,80.2 38.6,80.2 C35,80.2 32.0833333,79.2333333 29.85,77.3 C27.6166667,75.3666667 26.1,72.6333333 25.3,69.1 L29.9,69.1 C27.9,72.7 25.4666667,75.45 22.6,77.35 C19.7333333,79.25 16.4666667,80.2 12.8,80.2 Z" id="Path" fill="#1D293B"></path>
                <polygon id="Path" fill="#1D293B" points="68.059314 52.259375 69.840564 41.940625 128.120251 14.340625 125.879626 27.059375 76.6796265 50.140625 77.5796265 45 118.620251 68.0796875 116.579626 79.859375"></polygon>
                <path d="M153.840503,11.9 L165.92019,11.9 L157.959253,56.959375 C157.359253,60.4 157.662638,62.9369792 158.869409,64.5703125 C160.07618,66.2036458 162.739461,67.0203125 166.859253,67.0203125 C170.886336,67.0203125 175.099878,66.2604167 179.499878,64.740625 L177.279565,77.4203125 C172.012899,79.2734375 166.82644,80.2 161.72019,80.2 C154.42644,80.2 149.236336,78.2299479 146.149878,74.2898438 C143.06342,70.3497396 142.066545,65.2598958 143.159253,59.0203125 L148.299878,29.940625 L157.179565,24.2 L186.699878,24.2 L184.579565,36.040625 L136.079565,36.040625 L137.72019,26.559375 L149.299878,24.2 L153.840503,11.9 Z" id="Path" fill="#4678C2"></path>
                <polygon id="Path" fill="#4678C2" points="234.120129 88.059375 205.540442 88.059375 221.040442 0.059375 249.620129 0.059375 247.420129 12.7 228.879504 12.7 234.059192 8.340625 221.399817 79.8 217.779504 75.4203125 236.320129 75.4203125"></polygon>
                <path d="M268.020068,41.540625 C274.966943,43.0072917 281.457048,45.9372396 287.490381,50.3304688 C293.523714,54.7236979 298.330225,59.7536458 301.909912,65.4203125 C305.4896,71.0869792 307.279443,76.49375 307.279443,81.640625 C307.279443,85.146875 306.379443,88.2567708 304.579443,90.9703125 C302.779443,93.6838542 300.332829,95.8005208 297.2396,97.3203125 C294.14637,98.8401042 290.726318,99.6 286.979443,99.6 C281.365902,99.6 276.80262,97.9533854 273.2896,94.6601563 C269.776579,91.3669271 267.263298,87.2002604 265.749756,82.1601563 C264.236214,77.1200521 263.479443,71.7802083 263.479443,66.140625 C263.479443,57.1 265.249495,47.7398438 268.7896,38.0601563 C272.329704,28.3804688 277.176318,20.3005208 283.329443,13.8203125 C289.482568,7.34010417 296.292464,4.1 303.759131,4.1 C306.186214,4.1 308.479704,4.43333333 310.6396,5.1 C312.799495,5.76666667 314.586214,6.66666667 315.999756,7.8 L313.599756,21.2796875 C311.760173,20.0796875 309.866943,19.0997396 307.920068,18.3398438 C305.973193,17.5799479 303.992985,17.2 301.979443,17.2 C297.006527,17.2 292.676579,19.6200521 288.9896,24.4601563 C285.30262,29.3002604 282.479183,35.2635417 280.519287,42.35 C278.559391,49.4364583 277.579443,56.2395833 277.579443,62.759375 C277.579443,68.7333333 278.526058,74.1434896 280.419287,78.9898438 C282.312516,83.8361979 285.132568,86.259375 288.879443,86.259375 C290.706527,86.259375 292.18335,85.6460938 293.309912,84.4195313 C294.436475,83.1929688 294.999756,81.50625 294.999756,79.359375 C294.999756,75.5864583 293.299756,71.3867188 289.899756,66.7601563 C286.499756,62.1335938 282.053141,58.1036458 276.559912,54.6703125 C271.066683,51.2369792 265.306527,49.2802083 259.279443,48.8 L260.859131,39.8796875 L316.840381,39.8796875 L314.799756,51.640625 L280.320068,51.640625 L268.020068,41.540625 Z" id="Path" fill="#4678C2"></path>
                <polygon id="Path" fill="#4678C2" points="342.199695 0 370.799695 0 355.299695 88 326.699695 88 328.899695 75.4 347.399695 75.4 342.199695 79.8 354.899695 8.3 358.499695 12.7 339.999695 12.7"></polygon>
                <polygon id="Path" fill="#1D293B" points="385.419946 67.140625 434.519946 44.059375 433.619946 49.2 392.679321 26.1203125 394.719946 14.340625 443.140259 41.940625 441.359009 52.259375 383.179321 79.859375"></polygon>
            </g>
        </g>
    </g>
</svg>