<?xml version="1.0" encoding="UTF-8"?>
<svg width="499px" height="665px" viewBox="0 0 499 665" version="1.1" xmlns="http://www.w3.org/2000/svg" xmlns:xlink="http://www.w3.org/1999/xlink">
    <title>thumbnail</title>
    <g id="thumbnail" stroke="none" stroke-width="1" fill="none" fill-rule="evenodd">
        <g id="how-to-ask-questions" transform="translate(64.000000, 200.000000)">
            <path d="M186,0 C288.724963,0 372,55.5784449 372,124.137931 C372,160.709658 348.304239,193.587653 310.60052,216.306197 C313.944086,235.632461 328.383889,251.86459 353.916667,265 C318.414556,265 285.507012,256.466427 255.194033,239.39928 C233.807269,245.126071 210.454776,248.275862 186,248.275862 C83.2750365,248.275862 0,192.697417 0,124.137931 C0,55.5784449 83.2750365,0 186,0 Z" id="Combined-Shape" fill="#34D399"></path>
            <g id="???" transform="translate(73.000000, 80.000000)" fill="#F0FDF4" fill-rule="nonzero">
                <path d="M0,27.0644531 L22.5234375,27.0644531 C22.5839844,22.0996094 25.9746094,18.6484375 30.7578125,18.6484375 C35.4804688,18.6484375 38.9316406,21.4335938 38.9316406,25.4902344 C38.9316406,30.4550781 36.9335938,32.6347656 28.3359375,37.5996094 C19.9199219,42.4433594 17.1347656,47.8925781 18.6484375,58.9726562 L18.8300781,60.4257812 L40.3242188,60.4257812 L40.3242188,57.8828125 C40.3242188,52.4335938 42.625,49.890625 51.1015625,45.046875 C60.3652344,39.71875 64.3007812,33.7246094 64.3007812,24.9453125 C64.3007812,9.74804688 51.828125,0 32.453125,0 C12.3515625,0 0,10.3535156 0,27.0644531 Z M30.03125,90.6386719 C38.75,90.6386719 43.6542969,86.4003906 43.6542969,78.8320312 C43.6542969,71.203125 38.75,66.9648438 30.03125,66.9648438 C21.3730469,66.9648438 16.4082031,71.203125 16.4082031,78.8320312 C16.4082031,86.4003906 21.3730469,90.6386719 30.03125,90.6386719 Z M80.59375,27.0644531 L103.117188,27.0644531 C103.177734,22.0996094 106.568359,18.6484375 111.351562,18.6484375 C116.074219,18.6484375 119.525391,21.4335938 119.525391,25.4902344 C119.525391,30.4550781 117.527344,32.6347656 108.929688,37.5996094 C100.513672,42.4433594 97.7285156,47.8925781 99.2421875,58.9726562 L99.4238281,60.4257812 L120.917969,60.4257812 L120.917969,57.8828125 C120.917969,52.4335938 123.21875,49.890625 131.695312,45.046875 C140.958984,39.71875 144.894531,33.7246094 144.894531,24.9453125 C144.894531,9.74804688 132.421875,0 113.046875,0 C92.9453125,0 80.59375,10.3535156 80.59375,27.0644531 Z M110.625,90.6386719 C119.34375,90.6386719 124.248047,86.4003906 124.248047,78.8320312 C124.248047,71.203125 119.34375,66.9648438 110.625,66.9648438 C101.966797,66.9648438 97.0019531,71.203125 97.0019531,78.8320312 C97.0019531,86.4003906 101.966797,90.6386719 110.625,90.6386719 Z M161.1875,27.0644531 L183.710938,27.0644531 C183.771484,22.0996094 187.162109,18.6484375 191.945312,18.6484375 C196.667969,18.6484375 200.119141,21.4335938 200.119141,25.4902344 C200.119141,30.4550781 198.121094,32.6347656 189.523438,37.5996094 C181.107422,42.4433594 178.322266,47.8925781 179.835938,58.9726562 L180.017578,60.4257812 L201.511719,60.4257812 L201.511719,57.8828125 C201.511719,52.4335938 203.8125,49.890625 212.289062,45.046875 C221.552734,39.71875 225.488281,33.7246094 225.488281,24.9453125 C225.488281,9.74804688 213.015625,0 193.640625,0 C173.539062,0 161.1875,10.3535156 161.1875,27.0644531 Z M191.21875,90.6386719 C199.9375,90.6386719 204.841797,86.4003906 204.841797,78.8320312 C204.841797,71.203125 199.9375,66.9648438 191.21875,66.9648438 C182.560547,66.9648438 177.595703,71.203125 177.595703,78.8320312 C177.595703,86.4003906 182.560547,90.6386719 191.21875,90.6386719 Z" id="Combined-Shape"></path>
            </g>
        </g>
    </g>
</svg>