<?xml version="1.0" encoding="UTF-8"?>
<svg width="499px" height="665px" viewBox="0 0 499 665" version="1.1" xmlns="http://www.w3.org/2000/svg" xmlns:xlink="http://www.w3.org/1999/xlink">
    <title>thumbnail</title>
    <defs>
        <circle id="path-1" cx="15" cy="15" r="15"></circle>
        <filter x="-25.0%" y="-18.3%" width="150.0%" height="150.0%" filterUnits="objectBoundingBox" id="filter-2">
            <feMorphology radius="0.5" operator="dilate" in="SourceAlpha" result="shadowSpreadOuter1"></feMorphology>
            <feOffset dx="0" dy="2" in="shadowSpreadOuter1" result="shadowOffsetOuter1"></feOffset>
            <feGaussianBlur stdDeviation="2" in="shadowOffsetOuter1" result="shadowBlurOuter1"></feGaussianBlur>
            <feComposite in="shadowBlurOuter1" in2="SourceAlpha" operator="out" result="shadowBlurOuter1"></feComposite>
            <feColorMatrix values="0 0 0 0 0   0 0 0 0 0   0 0 0 0 0  0 0 0 0.05 0" type="matrix" in="shadowBlurOuter1"></feColorMatrix>
        </filter>
        <circle id="path-3" cx="15" cy="15" r="15"></circle>
        <filter x="-25.0%" y="-18.3%" width="150.0%" height="150.0%" filterUnits="objectBoundingBox" id="filter-4">
            <feMorphology radius="0.5" operator="dilate" in="SourceAlpha" result="shadowSpreadOuter1"></feMorphology>
            <feOffset dx="0" dy="2" in="shadowSpreadOuter1" result="shadowOffsetOuter1"></feOffset>
            <feGaussianBlur stdDeviation="2" in="shadowOffsetOuter1" result="shadowBlurOuter1"></feGaussianBlur>
            <feComposite in="shadowBlurOuter1" in2="SourceAlpha" operator="out" result="shadowBlurOuter1"></feComposite>
            <feColorMatrix values="0 0 0 0 0   0 0 0 0 0   0 0 0 0 0  0 0 0 0.05 0" type="matrix" in="shadowBlurOuter1"></feColorMatrix>
        </filter>
    </defs>
    <g id="thumbnail" stroke="none" stroke-width="1" fill="none" fill-rule="evenodd">
        <g id="raf" transform="translate(-0.500000, 217.000000)">
            <rect id="Rectangle-3" stroke="#C7CFD6" fill="#FFFFFF" x="0.5" y="0.5" width="499" height="60" rx="10"></rect>
            <g id="Group-3" transform="translate(0.000000, 171.000000)">
                <rect id="Rectangle-3-Copy-2" fill="#485569" x="0" y="0" width="500" height="61" rx="10"></rect>
                <g id="Send" transform="translate(224.931447, 23.255696)" fill="#FFFFFF" fill-rule="nonzero">
                    <path d="M8.2812421,4.55965474 L11.6477162,4.55965474 C11.6193071,1.83948688 9.45311598,0 6.07243739,0 C2.74857692,0 0.355113298,1.81107782 0.376420096,4.51704115 C0.36931783,6.72584586 1.91761181,7.9687424 4.43181396,8.54402594 L5.95169887,8.89913924 C7.54970871,9.26845707 8.26703757,9.70169529 8.2812421,10.5184559 C8.26703757,11.4062391 7.43607245,12.0241363 6.02272153,12.0241363 C4.46732529,12.0241363 3.44459899,11.2997051 3.36647406,9.90055874 L0,9.90055874 C0.0426135957,13.3025441 2.40766816,14.928963 6.06533512,14.928963 C9.68749076,14.928963 11.8323751,13.2883396 11.8465796,10.5255581 C11.8323751,8.20311718 10.2627743,6.78266399 7.39345886,6.15056232 L6.14346005,5.86647168 C4.82243858,5.58238104 3.9843712,5.14204055 4.01278026,4.2755641 C4.01988253,3.48011032 4.70170006,2.90482678 6.06533512,2.90482678 C7.43607245,2.90482678 8.18891264,3.52272391 8.2812421,4.55965474 Z" id="Path"></path>
                    <path d="M18.7286879,14.9502698 C21.5909011,14.9502698 23.4730016,13.565328 23.8707285,11.4204437 L20.6818111,11.3281142 C20.411925,12.0525453 19.7016984,12.44317 18.7926083,12.44317 C17.4573823,12.44317 16.6335195,11.5553867 16.6335195,10.2201607 L16.6335195,10.1278313 L23.9062398,10.1278313 L23.9062398,9.2613548 C23.9062398,5.66760823 21.7187419,3.6931783 18.6221539,3.6931783 C15.3267025,3.6931783 13.2102273,5.95169887 13.2102273,9.33237746 C13.2102273,12.8266923 15.2982935,14.9502698 18.7286879,14.9502698 Z M16.6335195,8.11078772 C16.6832353,7.02414103 17.5426095,6.20027818 18.6931766,6.20027818 C19.8366414,6.20027818 20.6605043,6.99573196 20.6747088,8.11078772 L16.6335195,8.11078772 Z" id="Shape"></path>
                    <path d="M29.1619281,8.52271914 C29.1690304,7.2798226 29.8934615,6.54118694 30.9943127,6.54118694 C32.0951639,6.54118694 32.7485724,7.26561807 32.7414701,8.47300328 L32.7414701,14.7443041 L36.2145033,14.7443041 L36.2145033,7.79118575 C36.2215805,5.33380173 34.7230023,3.6931783 32.4289704,3.6931783 C30.8167561,3.6931783 29.5951663,4.50993888 29.1122122,5.83806261 L28.9914737,5.83806261 L28.9914737,3.83522362 L25.6889201,3.83522362 L25.6889201,14.7443041 L29.1619281,14.7443041 L29.1619281,8.52271914 Z" id="Path"></path>
                    <path d="M42.3579503,14.900554 C44.005676,14.900554 44.9857887,13.9843617 45.4261292,12.9758399 L45.5326632,12.9758399 L45.5326632,14.7443041 L48.9701599,14.7443041 L48.9701599,0.198863447 L45.4971591,0.198863447 L45.4971591,5.70311956 L45.4261292,5.70311956 C45.0141978,4.70170006 44.0624942,3.6931783 42.3437458,3.6931783 C40.0639184,3.6931783 37.9971591,5.44743799 37.9971591,9.29686613 C37.9971591,13.0113512 39.9502822,14.900554 42.3579503,14.900554 Z M43.5653356,12.1945906 C42.2798254,12.1945906 41.5624966,11.0511258 41.5624966,9.28976387 C41.5624966,7.53550418 42.2727232,6.40624389 43.5653356,6.40624389 C44.8366412,6.40624389 45.5752768,7.50709511 45.5752768,9.28976387 C45.5752768,11.0582281 44.8295389,12.1945906 43.5653356,12.1945906 Z" id="Shape"></path>
                </g>
            </g>
            <g id="radio" transform="translate(0.500000, 101.000000)">
                <path d="M219.063291,0.5 C221.686644,0.5 224.061644,1.56332372 225.780806,3.28248558 C227.499967,5.00164744 228.563291,7.37664744 228.563291,10 L228.563291,10 L228.563291,20 C228.563291,22.6233526 227.499967,24.9983526 225.780806,26.7175144 C224.061644,28.4366763 221.686644,29.5 219.063291,29.5 L219.063291,29.5 L62.0632911,29.5 C59.4399386,29.5 57.0649386,28.4366763 55.3457767,26.7175144 C53.6266149,24.9983526 52.5632911,22.6233526 52.5632911,20 L52.5632911,20 L52.5632911,10 C52.5632911,7.37664744 53.6266149,5.00164744 55.3457767,3.28248558 C57.0649386,1.56332372 59.4399386,0.5 62.0632911,0.5 L62.0632911,0.5 Z" id="Rectangle-3-Copy" stroke="#C7CFD6" fill="#FFFFFF"></path>
                <g id="Oval">
                    <use fill="black" fill-opacity="1" filter="url(#filter-2)" xlink:href="#path-1"></use>
                    <use stroke="#C7CFD6" stroke-width="1" fill="#FFFFFF" fill-rule="evenodd" xlink:href="#path-1"></use>
                </g>
            </g>
            <g id="radio" transform="translate(270.000000, 101.000000)">
                <path d="M219.063291,0.5 C221.686644,0.5 224.061644,1.56332372 225.780806,3.28248558 C227.499967,5.00164744 228.563291,7.37664744 228.563291,10 L228.563291,10 L228.563291,20 C228.563291,22.6233526 227.499967,24.9983526 225.780806,26.7175144 C224.061644,28.4366763 221.686644,29.5 219.063291,29.5 L219.063291,29.5 L62.0632911,29.5 C59.4399386,29.5 57.0649386,28.4366763 55.3457767,26.7175144 C53.6266149,24.9983526 52.5632911,22.6233526 52.5632911,20 L52.5632911,20 L52.5632911,10 C52.5632911,7.37664744 53.6266149,5.00164744 55.3457767,3.28248558 C57.0649386,1.56332372 59.4399386,0.5 62.0632911,0.5 L62.0632911,0.5 Z" id="Rectangle-3-Copy" stroke="#C7CFD6" fill="#FFFFFF"></path>
                <g id="Group-4">
                    <g id="Oval">
                        <use fill="black" fill-opacity="1" filter="url(#filter-4)" xlink:href="#path-3"></use>
                        <use stroke="#C7CFD6" stroke-width="1" fill="#FFFFFF" fill-rule="evenodd" xlink:href="#path-3"></use>
                    </g>
                    <path d="M14.9620253,7 C19.3803033,7 22.9620253,10.581722 22.9620253,15 C22.9620253,19.418278 19.3803033,23 14.9620253,23 C10.5437473,23 6.96202532,19.418278 6.96202532,15 C6.96202532,10.581722 10.5437473,7 14.9620253,7 Z" id="Rectangle-3-Copy-4" fill="#485569"></path>
                </g>
            </g>
        </g>
    </g>
</svg>