<?xml version="1.0" encoding="UTF-8"?>
<svg width="499px" height="665px" viewBox="0 0 499 665" version="1.1" xmlns="http://www.w3.org/2000/svg" xmlns:xlink="http://www.w3.org/1999/xlink">
    <title>thumbnail</title>
    <g id="thumbnail" stroke="none" stroke-width="1" fill="none" fill-rule="evenodd">
        <g id="Group" transform="translate(40.000000, 206.000000)">
            <g id="matchbox">
                <polygon id="body" fill="#6B6B6B" points="219.877059 254 418.35489 101.814346 418.35489 35.9029536 235.926479 0 0 101.814346 0 183.265823"></polygon>
                <path d="M410.354,49.894 L410.35489,97.9217562 L227.636317,237.800567 L227.636317,164.156481 L410.354,49.894 Z" id="right" stroke="#5A3838" stroke-width="16" fill="#673E3E" opacity="0.807700021"></path>
                <path d="M8,114.119159 L212.38338,165.89708 L212.38338,243.029766 L8,177.41932 L8,114.119159 Z" id="front" stroke="#A38E63" stroke-width="16" fill="#AF996B"></path>
                <path d="M237.180699,8.32850774 L396.974032,39.7643031 L218.869272,151.275205 L21.763,101.255 L237.180699,8.32850774 Z" id="top" stroke-opacity="0.952199656" stroke="#FFFFFF" stroke-width="16" fill="#FF4C4C"></path>
            </g>
            <path d="M243.583077,40.8662181 L320.92629,60.1500469 L269.509,79.202 L269.515087,79.2212321 C269.591893,79.5008591 269.652546,79.7815075 269.697984,80.062356 L269.738386,80.3432408 C269.96927,82.1752135 269.592567,84.121606 268.307093,86.0435486 C267.500116,87.2500791 266.269969,88.4998108 264.496825,89.6468233 C262.937699,90.6553921 261.018676,91.529544 258.867631,92.2193356 C257.36654,94.938653 254.507767,97.6694986 249.816104,99.8762092 C244.050803,102.570415 235.892812,104.197414 227.357407,104.214573 C222.284499,104.214583 217.620534,103.67469 213.142211,102.982201 L212.248956,102.841783 L210.546288,102.563607 L205.166174,101.653341 C203.338114,101.350676 201.540079,101.071703 199.694224,100.843124 C196.274896,100.418198 192.579148,100.127947 188.753406,99.9080454 L187.60193,99.8441209 L185.230486,99.7252495 L184.046942,99.6713872 L181.6446,99.5709332 L179.229736,99.4789832 L174.366265,99.3077332 L170.695375,99.1703905 L167.931848,99.0593939 L165.171891,98.9369512 L163.332601,98.8465799 L161.502182,98.7479656 L159.689621,98.6402059 C151.922407,98.1547124 144.608221,97.3623749 138.698717,95.8889701 C132.492839,94.341671 127.853853,91.9366889 125.233871,88.8633179 C122.98563,86.1542537 122.560394,83.4127163 123.343625,80.7107361 C123.901965,78.7845826 125.260837,76.6825663 127.815856,74.6834238 L128.141492,74.434087 L128.646425,74.0656647 L129.412869,73.5459651 C129.670435,73.3777436 129.937725,73.2095213 130.214768,73.0414469 L130.637649,72.7894647 L131.19852,72.4684096 L131.530087,72.285056 L131.530087,72.285056 L131.869677,72.1018447 L132.494403,71.7757591 L133.160733,71.4427314 L133.84705,71.1137604 L134.553562,70.7885049 L135.280458,70.4666772 L136.027904,70.148035 L136.796049,69.832375 L137.585023,69.5195273 L138.39494,69.2093504 L139.225898,68.9017273 L140.077981,68.5965624 L140.933392,68.2999732 C146.021509,66.5477555 151.818355,65.2084988 157.260571,64.0455629 L158.420944,63.7989749 L160.767946,63.3049474 L161.701,63.105 L161.761846,63.005476 C162.01698,62.5957468 162.319419,62.1859442 162.673976,61.777807 L162.893002,61.5331385 C163.964933,60.3704375 165.608459,59.1527464 167.938413,58.0790785 C175.192563,54.7362883 187.386226,53.5869831 195.120802,55.5154294 C197.496637,56.1077916 199.314799,56.9382249 200.620169,57.8332831 C202.989783,59.4580647 204.042959,61.4354789 204.358291,63.3259036 C204.436802,63.7965794 204.474137,64.2791345 204.461799,64.7703054 L204.452,64.995 L204.80749,64.8724504 C209.590172,63.2617264 215.587006,62.4439607 220.980769,62.6657307 L221.556282,62.6934809 L243.583077,40.8662181 Z M228.192,82.908 L228.00874,82.9798374 C221.319351,85.5169725 211.549367,86.2850036 204.436233,84.5115001 C204.111674,84.4305785 203.797101,84.3458438 203.492411,84.2576725 C198.896092,85.0870603 194.032359,85.7291701 188.969154,86.1603986 L188.969154,86.1603986 L187.612989,86.2669315 C183.551298,86.5696822 179.551867,86.7208452 175.642106,86.7216594 L175.642106,86.7216594 L175.396,86.72 L175.984945,86.742724 L178.891416,86.8406994 L181.82044,86.9437663 L183.218498,86.9961328 C190.205103,87.2645864 197.124532,87.6390027 203.440108,88.4182867 C206.6648,88.8145078 209.754216,89.338541 212.747914,89.8479703 L212.747914,89.8479703 L214.76508,90.1891069 L215.643479,90.3349601 C219.733816,91.0082192 223.707782,91.5673104 227.886338,91.5622275 L227.886338,91.5622275 L228.440618,91.557313 C230.101042,91.5323832 231.737989,91.4159196 233.304757,91.2117114 L233.304757,91.2117114 L233.585,91.173 L233.325208,91.0292113 C232.361808,90.4813517 231.565082,89.8866237 230.923628,89.2785657 C229.200217,87.6448805 228.399802,85.8110176 228.223032,84.0051119 C228.188554,83.6528796 228.176859,83.2963611 228.190463,82.9366817 L228.190463,82.9366817 L228.192,82.908 Z M155.772,77.313 L155.712395,77.3284781 C153.235213,77.9417199 150.846414,78.6094263 148.654449,79.375304 L148.654449,79.375304 L148.051581,79.5880854 L147.224384,79.8909372 L146.604992,80.1267925 L145.334593,80.6382335 L143.88127,81.2796441 L143.010241,81.7024895 L141.35,82.682 L141.470062,82.7430833 C142.563376,83.2722146 143.92566,83.6666015 145.439609,84.0498212 L145.439609,84.0498212 L146.149901,84.2222731 L146.647512,84.3347178 L146.647512,84.3347178 L147.155364,84.4430954 L148.301394,84.6664773 L149.484757,84.8714318 L150.29224,84.99824 L151.131965,85.1202368 L151.994952,85.2362615 L152.880373,85.3464574 L153.787425,85.4509921 L154.715331,85.5500532 L155.659163,85.6434329 L157.121907,85.7751494 L158.621079,85.8958723 L160.159057,86.0068663 L161.733569,86.1090102 L163.324,86.202 L161.306339,86.0384683 L159.522773,84.628379 L159.219988,84.37982 C157.744751,83.1309107 156.845744,81.7932744 156.337504,80.5010288 C155.92232,79.4453868 155.735306,78.3808928 155.772,77.313 L155.772,77.313 Z" id="Shape" stroke="#FFFFFF" stroke-width="10" fill="#FF4C4C" fill-rule="nonzero"></path>
        </g>
    </g>
</svg>