<?xml version="1.0" encoding="UTF-8"?>
<svg width="384px" height="472px" viewBox="0 0 384 472" version="1.1" xmlns="http://www.w3.org/2000/svg" xmlns:xlink="http://www.w3.org/1999/xlink">
    <title>thumbnail</title>
    <g id="thumbnail" stroke="none" stroke-width="1" fill="none" fill-rule="evenodd">
        <g id="Group-2" transform="translate(191.749, 250.8618) rotate(12) translate(-191.749, -250.8618)translate(63.749, 59.9736)">
            <path d="M137.500972,302.276378 C126.250972,333.276378 98.0009716,326.526378 95.0009716,346.526378 C92.0009716,366.526378 108.500972,370.026378 118.000972,364.776378 C127.500972,359.526378 131.750972,346.526378 116.250972,346.526378 C105.917638,346.526378 98.8343049,358.276378 95.0009716,381.776378" id="Path-2" stroke="#94A3B8" stroke-width="4" stroke-linecap="round" stroke-linejoin="round"></path>
            <path d="M103,295 L138.514719,295 C141.828427,295 144.514719,297.686292 144.514719,301 C144.514719,302.591299 143.882578,304.117422 142.757359,305.242641 L113.242641,334.757359 C110.899495,337.100505 107.100505,337.100505 104.757359,334.757359 C103.632141,333.632141 103,332.106018 103,330.514719 L103,295 L103,295 Z" id="Rectangle" fill="#4338CA" transform="translate(128, 320) rotate(45) translate(-128, -320)"></path>
            <g id="Group-4" fill="#4F46E5">
                <path d="M128,296 C198.692448,296 256,198.692448 256,128 C256,57.307552 198.692448,0 128,0 C57.307552,0 0,57.307552 0,128 C0,198.692448 57.307552,296 128,296 Z" id="Oval"></path>
            </g>
            <path d="M203.250972,91.0263782 C203.250972,57.8892932 169.672328,31.0263782 128.250972,31.0263782 C86.8296154,31.0263782 53.2509716,57.8892932 53.2509716,91.0263782 C53.2509716,124.163463 203.250972,124.163463 203.250972,91.0263782 Z" id="Oval" fill="#6366F1"></path>
        </g>
    </g>
</svg>