<?xml version="1.0" encoding="UTF-8"?>
<svg width="499px" height="665px" viewBox="0 0 499 665" version="1.1" xmlns="http://www.w3.org/2000/svg" xmlns:xlink="http://www.w3.org/1999/xlink">
    <title>thumbnail</title>
    <g id="thumbnail" stroke="none" stroke-width="1" fill="none" fill-rule="evenodd">
        <g id="functions" transform="translate(27.000000, 179.000000)">
            <polygon id="left" fill="#E879F9" points="87 69 224.5 137 224 308 87 239.957295"></polygon>
            <polygon id="right" fill="#A21CAF" transform="translate(292.500000, 188.500000) scale(-1, 1) translate(-292.500000, -188.500000) " points="224 69 361 137.042705 361 308 224 239.957295"></polygon>
            <polygon id="top" fill="#D946EF" points="224.5 1 361 69 224.5 137 88 69"></polygon>
            <polygon id="color" fill="#F99CFF" style="mix-blend-mode: color;" points="224.5 0 361 68.033241 361 238.966759 224.5 307 88 238.966759 88 68.033241"></polygon>
            <path id="left-arrow" d="M146.612636,174.89551 C148.388366,174.787748 149.915238,176.139903 150.023,177.915634 C150.065218,178.611317 149.880659,179.301927 149.497024,179.883804 L149.497024,179.883804 L120.230033,224.274408 C119.250804,225.759649 117.252956,226.169854 115.767715,225.190625 C115.350219,224.915368 115.002544,224.546687 114.752224,224.113779 L114.752224,224.113779 L105.352,207.857 L2.50285957,267.328475 C0.112308956,268.710766 -2.94618361,267.89341 -4.32847479,265.50286 C-5.67236898,263.178713 -4.93712158,260.223217 -2.69841704,258.790546 L-2.50285957,258.671525 L100.346,199.2 L90.9465373,182.943945 C90.0878255,181.458879 90.5467836,179.57369 91.961546,178.642458 L92.1226568,178.542982 C92.5555642,178.292661 93.0408074,178.146571 93.5399583,178.116279 L93.5399583,178.116279 Z" fill="#FEF08A" fill-rule="nonzero"></path>
            <path id="right-arrow" d="M446.817461,179.693879 C448.160897,182.018291 447.425067,184.973642 445.18608,186.405872 L444.990499,186.524854 L320.643082,258.393924 C324.879292,270.409423 320.106759,284.113903 308.675464,290.720828 C295.76502,298.182656 279.25003,293.765678 271.788203,280.855234 C264.326376,267.944789 268.743353,251.4298 281.653798,243.967972 C293.085266,237.360947 307.342734,240.067023 315.639264,249.736112 L439.986487,177.866917 C442.37731,176.485098 445.435641,177.303056 446.817461,179.693879 Z" transform="translate(369.000000, 225.000000) scale(-1, 1) translate(-369.000000, -225.000000) " fill="#FB7185" fill-rule="nonzero"></path>
        </g>
    </g>
</svg>